<svg width="32" height="32" viewBox="0 0 32 32" fill="none" xmlns="http://www.w3.org/2000/svg">
<path d="M6.66634 1.33337H2.66634C2.31272 1.33337 1.97358 1.47385 1.72353 1.7239C1.47348 1.97395 1.33301 2.31309 1.33301 2.66671V29.3334C1.33301 29.687 1.47348 30.0261 1.72353 30.2762C1.97358 30.5262 2.31272 30.6667 2.66634 30.6667H6.66634V1.33337Z" fill="#B0B7C3"/>
<path d="M9.33301 30.6667H22.6663V1.33337H9.33301V30.6667ZM15.9997 25.3334C15.6461 25.3334 15.3069 25.1929 15.0569 24.9428C14.8068 24.6928 14.6663 24.3537 14.6663 24C14.6663 23.6464 14.8068 23.3073 15.0569 23.0572C15.3069 22.8072 15.6461 22.6667 15.9997 22.6667C16.3533 22.6667 16.6924 22.8072 16.9425 23.0572C17.1925 23.3073 17.333 23.6464 17.333 24C17.333 24.3537 17.1925 24.6928 16.9425 24.9428C16.6924 25.1929 16.3533 25.3334 15.9997 25.3334ZM15.9997 6.66671C16.3533 6.66671 16.6924 6.80718 16.9425 7.05723C17.1925 7.30728 17.333 7.64642 17.333 8.00004C17.333 8.35366 17.1925 8.6928 16.9425 8.94285C16.6924 9.1929 16.3533 9.33337 15.9997 9.33337C15.6461 9.33337 15.3069 9.1929 15.0569 8.94285C14.8068 8.6928 14.6663 8.35366 14.6663 8.00004C14.6663 7.64642 14.8068 7.30728 15.0569 7.05723C15.3069 6.80718 15.6461 6.66671 15.9997 6.66671ZM15.9997 14.6667C16.3533 14.6667 16.6924 14.8072 16.9425 15.0572C17.1925 15.3073 17.333 15.6464 17.333 16C17.333 16.3537 17.1925 16.6928 16.9425 16.9428C16.6924 17.1929 16.3533 17.3334 15.9997 17.3334C15.6461 17.3334 15.3069 17.1929 15.0569 16.9428C14.8068 16.6928 14.6663 16.3537 14.6663 16C14.6663 15.6464 14.8068 15.3073 15.0569 15.0572C15.3069 14.8072 15.6461 14.6667 15.9997 14.6667Z" fill="#69CB3A"/>
<path d="M29.333 1.33337H25.333V30.6667H29.333C29.6866 30.6667 30.0258 30.5262 30.2758 30.2762C30.5259 30.0261 30.6663 29.687 30.6663 29.3334V2.66671C30.6663 2.31309 30.5259 1.97395 30.2758 1.7239C30.0258 1.47385 29.6866 1.33337 29.333 1.33337Z" fill="#69CB3A" fill-opacity="0.4"/>
</svg>
