<svg width="32" height="32" viewBox="0 0 32 32" fill="none" xmlns="http://www.w3.org/2000/svg">
<path d="M11.9997 13.3334H2.66634C2.31272 13.3334 1.97358 13.1929 1.72353 12.9429C1.47348 12.6928 1.33301 12.3537 1.33301 12V2.66671C1.33301 2.31309 1.47348 1.97395 1.72353 1.7239C1.97358 1.47385 2.31272 1.33337 2.66634 1.33337H11.9997C12.3533 1.33337 12.6924 1.47385 12.9425 1.7239C13.1925 1.97395 13.333 2.31309 13.333 2.66671V12C13.333 12.3537 13.1925 12.6928 12.9425 12.9429C12.6924 13.1929 12.3533 13.3334 11.9997 13.3334Z" fill="#69CB3A"/>
<path d="M11.9997 30.6667H2.66634C2.31272 30.6667 1.97358 30.5263 1.72353 30.2762C1.47348 30.0262 1.33301 29.687 1.33301 29.3334V20.0001C1.33301 19.6465 1.47348 19.3073 1.72353 19.0573C1.97358 18.8072 2.31272 18.6667 2.66634 18.6667H11.9997C12.3533 18.6667 12.6924 18.8072 12.9425 19.0573C13.1925 19.3073 13.333 19.6465 13.333 20.0001V29.3334C13.333 29.687 13.1925 30.0262 12.9425 30.2762C12.6924 30.5263 12.3533 30.6667 11.9997 30.6667Z" fill="#69CB3A"/>
<path d="M17.333 2.66675H30.6663V5.33341H17.333V2.66675Z" fill="#69CB3A" fill-opacity="0.4"/>
<path d="M30.6663 20H17.333V22.6667H30.6663V20Z" fill="#69CB3A" fill-opacity="0.4"/>
<path d="M30.6663 26.6667H17.333V29.3334H30.6663V26.6667Z" fill="#B0B7C3"/>
<path d="M30.6663 9.33337H17.333V12H30.6663V9.33337Z" fill="#B0B7C3"/>
</svg>
