<svg width="112" height="113" viewBox="0 0 112 113" fill="none" xmlns="http://www.w3.org/2000/svg">
<g filter="url(#filter0_d_2268_3092)">
<rect width="52.8217" height="52.8217" rx="12.4063" transform="matrix(0.704215 -0.709987 0.704215 0.709987 18.5957 46.5027)" fill="white"/>
</g>
<path d="M66.3501 33.7128C66.5173 34.2881 66.631 34.6025 66.7113 34.7028C66.7916 34.8032 66.7113 35.0239 66.5307 35.0841C66.3501 35.1443 65.7346 35.345 65.7346 35.345L65.4336 33.1977L65.6142 32.8365L66.1226 32.3883C66.1293 32.3883 66.243 33.3449 66.3501 33.7128Z" fill="#F37E4E"/>
<path d="M58.543 37.7199C58.543 37.7199 59.7002 36.7499 59.9678 36.4021C60.3424 35.907 60.5097 35.7064 60.416 35.305C60.3157 34.9036 60.1618 34.636 60.3826 34.7163C60.6033 34.7966 64.1889 37.3787 64.1889 37.3787C64.1889 37.3787 63.4263 37.7199 62.8844 38.2216C62.3493 38.7166 61.8877 39.7468 61.8877 39.7468L58.543 37.7199Z" fill="#FFA171"/>
<path d="M60.8039 37.0978C61.4662 38.0544 62.0615 39.3722 62.0615 39.3722C62.0615 39.3722 62.3759 38.7033 62.6101 38.4691C63.1385 37.9407 63.9613 37.4055 63.9613 37.4055L62.1953 34.6294L60.5832 35.1645L60.3624 35.8469L60.0547 36.2951C60.0547 36.2951 60.3959 36.5024 60.8039 37.0978Z" fill="#F37E4E"/>
<path d="M65.8475 30.7093C65.8475 30.7093 66.0415 31.1843 66.095 32.1141C66.1418 32.9503 66.1552 33.4119 66.1218 33.9336C66.0816 34.616 66.1485 35.1578 66.1285 35.7933C66.1084 36.4288 65.8676 36.9907 65.6468 37.1981C65.3057 37.5125 65.1317 37.5393 64.5297 37.5593C63.9343 37.5794 63.252 37.372 62.3556 36.9774C61.4659 36.5827 60.6832 36.4355 60.5026 35.5792C60.322 34.723 60.4223 33.9069 60.4223 33.9069L63.5062 31.0237L65.8475 30.7093Z" fill="#FFA171"/>
<path d="M62.1031 34.1678C62.1031 34.1678 61.9693 34.4488 62.3172 34.8501C62.665 35.2515 62.8323 35.5191 62.8992 35.7131C62.9661 35.9138 62.6182 35.9606 62.3306 35.8134C62.0496 35.6662 62.0295 35.5793 61.7954 35.6462C61.5613 35.7131 61.2469 35.7465 61.0796 35.5994C60.9124 35.4522 60.899 35.4187 60.6983 35.4856C60.4976 35.5525 60.1966 35.4388 60.0494 35.0843C59.909 34.7364 62.1031 34.1678 62.1031 34.1678Z" fill="#5E2D1E"/>
<path fill-rule="evenodd" clip-rule="evenodd" d="M63.3408 28.174C64.6853 28.3747 65.6955 29.2175 66.1972 30.5956C66.7056 31.9736 66.7725 33.8601 66.7591 33.8467C66.4581 34.3484 65.7824 34.723 65.2138 35.024C64.6527 35.3277 64.1502 35.032 63.5906 34.7027C63.5831 34.6983 63.5757 34.6939 63.5682 34.6895C62.9996 34.3551 62.5915 34.3216 62.1233 34.4554C61.8144 34.5437 61.3424 34.8678 60.9801 35.1165C60.7933 35.2448 60.6356 35.3531 60.5446 35.3986C60.277 35.5324 59.9358 35.5324 59.6682 35.1645C59.6294 35.1111 59.5884 35.0602 59.5455 35.0069C59.2929 34.6932 58.9735 34.2964 58.6247 32.8098C58.2501 31.2177 58.5511 30.2879 59.6147 29.1707C60.5245 28.2208 61.9962 27.9733 63.3408 28.174ZM65.4816 34.2546C65.8027 34.2212 66.0636 34.0339 66.1639 33.9202C66.3178 33.7529 66.2843 33.4987 66.2308 33.1709C66.184 32.8432 66.0167 32.221 65.515 32.0872C65.2006 32.0003 64.8728 32.2812 64.7658 32.6692C64.6655 33.0371 64.6588 33.4184 64.8461 33.8533C64.9464 34.0874 65.1337 34.2881 65.4816 34.2546Z" fill="#53B175"/>
<path d="M61.2521 33.7596C61.9392 33.7596 62.4963 33.1875 62.4963 32.4819C62.4963 31.7762 61.9392 31.2042 61.2521 31.2042C60.5649 31.2042 60.0078 31.7762 60.0078 32.4819C60.0078 33.1875 60.5649 33.7596 61.2521 33.7596Z" fill="#FFAA00"/>
<path d="M61.254 33.2578C61.6714 33.2578 62.0099 32.9104 62.0099 32.4819C62.0099 32.0533 61.6714 31.7059 61.254 31.7059C60.8365 31.7059 60.498 32.0533 60.498 32.4819C60.498 32.9104 60.8365 33.2578 61.254 33.2578Z" fill="#FFC648"/>
<path d="M55.7695 28.4415C55.7695 27.9933 56.4452 27.9063 58.4587 28.2074C60.4789 28.5084 61.382 28.5418 61.8235 28.9499C62.2583 29.3513 62.158 29.7928 62.0576 30.4617C61.9573 31.1373 61.5559 32.2077 61.489 32.4485C61.4221 32.6826 61.0877 32.6826 60.9204 32.5823C60.7532 32.4819 60.7532 32.0137 60.7866 31.8397C60.8201 31.6725 60.2515 31.0638 60.2515 31.0638C60.2515 31.0638 59.6093 30.93 59.2414 30.7293C58.8735 30.5286 58.8066 30.3279 58.8066 30.3279C58.8066 30.3279 57.9637 30.2276 57.5289 29.9934C57.094 29.7593 57.0606 29.3847 57.0606 29.3847C57.0606 29.3847 55.7695 29.0837 55.7695 28.4415Z" fill="#FFAA00"/>
<path d="M65.6085 33.8533C65.7784 33.8533 65.9162 33.6077 65.9162 33.3047C65.9162 33.0018 65.7784 32.7562 65.6085 32.7562C65.4386 32.7562 65.3008 33.0018 65.3008 33.3047C65.3008 33.6077 65.4386 33.8533 65.6085 33.8533Z" fill="#5E2D1E"/>
<path d="M56.1023 28.5552C56.2294 28.8562 56.5773 29.0301 57.2596 29.077C57.9353 29.1238 60.591 29.1974 60.9857 29.184C61.387 29.1706 61.7416 28.8295 60.4304 28.6622C59.1193 28.495 57.4737 28.2475 56.9185 28.2341C56.3632 28.214 55.9752 28.2609 56.1023 28.5552Z" fill="#FFC648"/>
<path d="M57.4867 29.5251C57.5469 29.7592 57.781 29.8328 58.2292 29.9532C58.6774 30.0736 58.9517 30.0335 59.4601 30.0134C59.9685 30 60.7244 29.8462 60.9518 29.8127C61.1859 29.7793 61.6141 29.505 60.6106 29.4448C59.6072 29.3846 58.1289 29.3512 57.7609 29.3512C57.4666 29.3512 57.4599 29.398 57.4867 29.5251Z" fill="#FFC648"/>
<path d="M59.293 30.4148C59.38 30.582 59.681 30.6757 59.8817 30.7225C60.0824 30.7693 60.3767 30.6155 60.7112 30.475C61.0524 30.3345 61.3266 30.087 61.1594 30.0736C60.9922 30.0603 60.4035 30.1539 60.0021 30.194C59.6008 30.2476 59.1994 30.2476 59.293 30.4148Z" fill="#FFC648"/>
<path d="M60.5245 30.9969C60.665 31.2177 60.7721 31.4719 60.8858 31.5053C60.9995 31.5388 61.1667 31.425 61.2136 31.0103C61.2604 30.6022 61.3474 30.2878 61.0798 30.5019C60.8189 30.7159 60.5848 30.7962 60.5045 30.8497C60.4242 30.8966 60.4376 30.8631 60.5245 30.9969Z" fill="#FFC648"/>
<path d="M64.3041 71.147C64.3041 71.147 64.0566 73.8028 63.9562 74.2242C63.8492 74.6456 63.6084 74.9601 63.6418 75.4149C63.6753 75.8698 64.0298 76.0103 65.0734 76.0103C66.1236 76.0103 69.2008 75.9769 69.2008 75.9769C69.2008 75.9769 66.8929 74.6858 66.5785 74.4717C66.2641 74.2643 66.1571 74.0503 66.2641 73.4549C66.3711 72.8596 66.6855 71.7759 66.6855 71.7759L64.3041 71.147Z" fill="#FFA171"/>
<path d="M64.8725 73.4885C65.6017 73.5219 66.2773 73.2878 66.2773 73.2878L66.8058 71.4013L64.2437 71.4749L64.0898 73.3078C64.0898 73.3145 64.344 73.4617 64.8725 73.4885Z" fill="#F37E4E"/>
<path d="M66.8654 74.2378C67.3604 74.4519 68.1966 74.88 68.7719 75.2011C69.3539 75.5222 69.588 75.6292 69.588 75.9302C69.588 76.2313 68.6046 76.1844 67.2868 76.1844C66.1496 76.1844 63.6411 76.1778 63.5608 76.1778C63.4738 76.1778 63.2196 75.676 63.3266 74.9937C63.4337 74.3047 63.9555 74.2311 63.9555 74.2311C63.9555 74.2311 64.0357 74.9803 64.7047 75.0272C65.6412 75.0874 66.1162 74.9068 66.3302 74.7797C66.5443 74.6526 66.5443 74.5054 66.5443 74.5054C66.5443 74.5054 66.2633 74.2244 66.5042 74.0773C66.7316 73.9167 66.8654 74.2378 66.8654 74.2378Z" fill="#FFC648"/>
<path d="M43.5254 55.7211C43.5254 55.7211 42.6959 58.0356 45.3449 60.0826C47.9939 62.1229 52.4625 62.2902 57.2589 62.2902C62.0552 62.2902 64.1022 62.3437 64.1022 62.3437C64.1022 62.3437 63.7744 67.421 63.3864 69.5683C62.9984 71.7223 62.5569 72.3244 62.8379 72.5451C63.1122 72.7659 63.7744 72.6789 65.4802 72.6789C67.2262 72.6789 67.942 72.5451 68.1627 72.2709C68.3835 71.9966 69.8418 69.1736 70.3903 65.0395C70.9389 60.8987 71.2733 58.8585 70.3368 57.3734C69.4003 55.8816 67.5807 54.7244 64.9317 54.2828C62.2827 53.8413 59.8544 53.2928 59.8544 53.2928L43.5254 55.7211Z" fill="#FFC648"/>
<path d="M46.0274 57.641C48.7233 58.2431 53.2721 58.4103 56.1218 56.7914C58.9716 55.1726 60.5503 54.5505 61.1456 54.3899C61.741 54.2294 63.4535 54.0688 63.4535 54.0688L61.0988 53.6073L50.5294 55.3398L43.3984 56.6108C43.3984 56.6175 44.7096 57.3467 46.0274 57.641Z" fill="#FFAA00"/>
<path d="M58.8259 37.586C58.8259 37.586 58.7524 35.82 56.0833 35.2581C53.4208 34.6962 52.8188 34.8099 51.7685 35.8601C50.7183 36.9104 50.1564 38.3353 50.6781 39.3855C51.1999 40.4357 53.7954 39.7601 55.2538 39.1982C56.7254 38.6363 58.1102 38.3419 58.8259 37.586Z" fill="#FFC648"/>
<path d="M58.5573 37.2314C58.5573 37.2314 58.2027 36.2949 57.119 35.7931C56.2962 35.4118 54.9182 35.1175 53.8947 35.1175C53.0451 35.1175 52.617 35.345 52.5167 35.7062C52.3962 36.1343 53.8746 35.7463 55.4199 36.0875C56.4768 36.3216 57.507 36.5959 57.9686 37.111C58.2429 37.412 58.5104 37.7665 58.6108 37.6996C58.7379 37.6328 58.6375 37.3652 58.5573 37.2314Z" fill="#FFAA00"/>
<path d="M59.7012 38.3821C60.825 39.0243 61.882 39.7401 61.882 39.7401C61.882 39.7401 60.9856 41.7603 60.8785 44.2287C60.7715 46.6971 60.4504 48.5167 60.718 50.5035C60.9856 52.4902 61.0926 53.6141 61.0926 53.6141C61.0926 53.6141 57.3398 55.6544 53.0451 56.1895C48.7572 56.7247 43.3922 56.6177 43.3922 56.6177C43.3922 56.6177 41.2984 53.0789 45.7001 46.4831C50.1018 39.8872 53.9616 38.5962 55.1925 38.0075C56.4233 37.4188 58.5372 37.7199 58.5372 37.7199L59.7012 38.3821Z" fill="#FFC648"/>
<path d="M44.9433 84.0176C48.0726 84.0176 50.6093 81.4809 50.6093 78.3516C50.6093 75.2224 48.0726 72.6856 44.9433 72.6856C41.8141 72.6856 39.2773 75.2224 39.2773 78.3516C39.2773 81.4809 41.8141 84.0176 44.9433 84.0176Z" fill="#5E2D1E"/>
<path d="M44.9438 81.9439C46.9278 81.9439 48.5361 80.3356 48.5361 78.3516C48.5361 76.3677 46.9278 74.7594 44.9438 74.7594C42.9599 74.7594 41.3516 76.3677 41.3516 78.3516C41.3516 80.3356 42.9599 81.9439 44.9438 81.9439Z" fill="#DBB38A"/>
<path d="M44.9434 81.5626C46.7167 81.5626 48.1543 80.125 48.1543 78.3516C48.1543 76.5782 46.7167 75.1407 44.9434 75.1407C43.17 75.1407 41.7324 76.5782 41.7324 78.3516C41.7324 80.125 43.17 81.5626 44.9434 81.5626Z" fill="#F9E5D0"/>
<path d="M44.9445 79.636C45.6539 79.636 46.2289 79.0609 46.2289 78.3516C46.2289 77.6423 45.6539 77.0672 44.9445 77.0672C44.2352 77.0672 43.6602 77.6423 43.6602 78.3516C43.6602 79.0609 44.2352 79.636 44.9445 79.636Z" fill="#5E2D1E"/>
<path d="M79.8164 84.0176C82.9456 84.0176 85.4824 81.4809 85.4824 78.3516C85.4824 75.2224 82.9456 72.6856 79.8164 72.6856C76.6871 72.6856 74.1504 75.2224 74.1504 78.3516C74.1504 81.4809 76.6871 84.0176 79.8164 84.0176Z" fill="#5E2D1E"/>
<path d="M79.8169 81.9439C81.8008 81.9439 83.4091 80.3356 83.4091 78.3516C83.4091 76.3677 81.8008 74.7594 79.8169 74.7594C77.8329 74.7594 76.2246 76.3677 76.2246 78.3516C76.2246 80.3356 77.8329 81.9439 79.8169 81.9439Z" fill="#DBB38A"/>
<path d="M79.8164 81.5626C81.5898 81.5626 83.0274 80.125 83.0274 78.3516C83.0274 76.5782 81.5898 75.1407 79.8164 75.1407C78.0431 75.1407 76.6055 76.5782 76.6055 78.3516C76.6055 80.125 78.0431 81.5626 79.8164 81.5626Z" fill="#F9E5D0"/>
<path d="M79.8156 79.636C80.525 79.636 81.1 79.0609 81.1 78.3516C81.1 77.6423 80.525 77.0672 79.8156 77.0672C79.1063 77.0672 78.5312 77.6423 78.5312 78.3516C78.5312 79.0609 79.1063 79.636 79.8156 79.636Z" fill="#5E2D1E"/>
<path d="M37.105 73.1407C37.8069 73.1407 38.376 72.4488 38.376 71.5954C38.376 70.742 37.8069 70.0501 37.105 70.0501C36.403 70.0501 35.834 70.742 35.834 71.5954C35.834 72.4488 36.403 73.1407 37.105 73.1407Z" fill="#53B175"/>
<path d="M40.938 69.5349C40.938 69.5349 39.3258 69.468 38.5498 69.5349C37.7805 69.6018 37.0781 69.8828 37.0781 69.8828V73.1941C37.0781 73.1941 37.2186 73.3948 37.8474 73.3948C38.4762 73.3948 40.938 69.5349 40.938 69.5349Z" fill="#F9E5D0"/>
<path d="M50.4961 40.9174C50.4961 40.9174 51.2921 41.1448 52.6902 40.4625C53.8141 39.914 54.9914 39.5126 56.0617 39.0443C57.1321 38.5761 58.5435 37.7198 58.5435 37.7198C58.5435 37.7198 53.707 39.1982 53.4997 39.2517C53.2923 39.3052 51.7203 39.9073 51.7203 39.9073L50.4961 40.9174Z" fill="#FFAA00"/>
<path d="M43.5394 67.0265C43.5394 66.8125 43.4123 66.6318 43.2384 66.5449V59.8086C43.2384 59.5544 43.031 59.347 42.7768 59.347H41.8403C41.5861 59.347 41.3787 59.5544 41.3787 59.8086V66.4981H25.8926C25.5982 66.4981 25.3574 66.7389 25.3574 67.0332C25.3574 67.3276 25.5982 67.5684 25.8926 67.5684H36.85L42.5762 70.5051C42.7635 70.5987 42.9909 70.5251 43.0846 70.3445L43.3388 69.8495C43.4324 69.6622 43.3588 69.4347 43.1782 69.3411L39.7465 67.5751H43.011C43.2986 67.5617 43.5394 67.3209 43.5394 67.0265Z" fill="#9E9E9F"/>
<path d="M57.6941 40.1883C57.6941 40.1883 59.1858 40.2284 59.3932 42.824C59.4936 44.0548 59.5872 44.9646 59.6541 45.5867C59.7277 46.2289 60.0822 46.8042 60.6174 47.1588V47.1588L60.6642 48.0953L58.2828 48.3495L57.0586 47.3327L57.6941 40.1883Z" fill="#FFAA00"/>
<path d="M51.8343 51.4264C52.122 53.1389 53.5067 53.8815 56.149 53.8614C58.972 53.8413 61.0524 53.2794 61.0524 53.2794L60.6845 50.9983C60.6845 50.9983 55.547 51.0518 54.6439 49.7808C53.7408 48.5098 52.8979 41.3053 52.8979 41.3053C52.8979 41.3053 50.7774 45.1249 51.8343 51.4264Z" fill="#FFAA00"/>
<path d="M56.6173 66.6451C56.6173 66.6451 55.8146 65.1333 50.2757 65.334C44.7368 65.5347 42.0209 66.7722 39.9806 69.4614C38.2279 71.7759 37.1911 73.9902 36.5823 75.9034C35.9803 77.8165 35.6792 77.9169 36.2813 78.4186C36.8833 78.9203 51.9548 79.034 51.9548 79.034L53.4867 79.5224L66.772 79.422L73.9163 78.4186L86.5996 74.7929C86.5996 74.7929 86.1514 71.8027 82.6863 70.4447C80.6393 69.642 79.0539 69.8628 79.0539 69.8628L72.3109 50.0351C72.3109 50.0351 71.7757 49.4063 70.9395 48.8845C70.1033 48.3628 68.5915 48.6236 67.6483 49.2525C66.7118 49.8813 68.6919 51.5469 69.7354 53.4802C70.779 55.4135 72.1971 57.8819 72.1971 64.1366C72.1971 70.3912 72.1971 71.0802 72.1971 72.2375C72.1971 73.3948 71.6887 74.833 70.2706 75.9368C69.7822 76.3181 59.6677 76.2445 58.8182 76.2445C57.7479 76.2445 55.0721 74.5521 54.6038 72.0837C54.1355 69.6152 56.6173 66.6451 56.6173 66.6451Z" fill="#53B175"/>
<path d="M49.4387 67.722C52.3821 68.5114 53.2718 70.3577 53.4123 72.9666C53.5527 75.4417 53.4859 75.5822 53.5996 76.3381C53.7401 77.3014 53.6665 77.0472 58.3424 77.1475C63.2525 77.2546 66.149 77.1676 68.3164 76.7194C69.8818 76.3983 70.7313 75.93 71.4471 74.8865C72.3636 73.5352 72.1428 71.1604 72.2231 67.7822C72.3234 63.4608 71.514 57.4069 70.4972 54.818C69.855 53.1724 71.0056 50.1554 72.3168 50.0484C73.6346 49.9414 74.5979 67.4009 74.5979 67.4009L76.7586 69.0666C76.7586 69.0666 79.3474 69.7757 79.809 69.8225C81.7958 70.0433 82.264 70.3577 82.2573 70.3644C82.2573 70.3644 80.5716 70.3644 78.4243 74.9734C78.1901 75.4751 77.7419 77.3081 77.7419 77.3081C77.7419 77.3081 74.9859 78.1376 74.725 78.1978C73.0526 78.5724 72.4706 79.2213 72.4706 79.2213L63.8813 79.636L53.5059 79.5357L51.9607 79.0406L50.8836 73.0335L46.1408 70.7658L42.2208 72.3445L38.856 75.435L37.1836 78.7262C37.1836 78.7262 36.7421 78.7998 36.2872 78.4252C35.8323 78.0506 35.8323 78.2379 36.5882 75.91C37.3441 73.582 38.8359 71.7023 40.8829 69.7623C42.9298 67.8224 47.2914 67.1467 49.4387 67.722Z" fill="#53B175"/>
<path d="M46.676 68.8459C50.0943 68.7522 51.9205 70.545 52.2282 73.1673C52.536 75.7895 51.9607 79.0406 51.9607 79.0406L37.1836 78.7262C37.1836 78.7262 37.9529 69.08 46.676 68.8459Z" fill="#53B175"/>
<path d="M44.2837 59.0525C44.2837 59.0525 42.8187 58.7448 42.5845 59.9021C42.3504 61.0594 42.5845 64.9928 42.5845 65.7688C42.5845 66.5381 44.5245 66.0096 46.2972 65.8558C48.0699 65.7019 50.8996 65.4076 52.98 65.7955C55.0604 66.1835 56.6124 66.6585 56.6124 66.6585C56.6124 66.6585 57.395 66.6184 58.0908 66.6184C58.7865 66.6184 58.9403 65.2269 59.0942 63.9961C59.248 62.7585 58.8935 62.2969 57.2613 62.2969C55.629 62.2969 46.9059 62.8321 44.2837 59.0525Z" fill="#53B175"/>
<path d="M69.1948 50.3228C68.9607 51.1055 68.9875 51.3062 68.5259 51.1724C68.0576 51.0453 67.8569 51.1991 67.6496 51.5871C67.4422 51.9751 66.0508 50.684 66.0508 50.684C66.0508 50.684 66.4923 50.0887 67.4221 49.7542C68.352 49.4197 68.7132 49.5736 69.0209 49.6739C69.3219 49.7743 69.2684 50.0619 69.1948 50.3228Z" fill="#53B175"/>
<path d="M66.8262 47.2456C67.4173 47.2456 67.8965 46.4279 67.8965 45.4193C67.8965 44.4107 67.4173 43.5931 66.8262 43.5931C66.2351 43.5931 65.7559 44.4107 65.7559 45.4193C65.7559 46.4279 66.2351 47.2456 66.8262 47.2456Z" fill="#53B175"/>
<path d="M69.5699 45.7003C70.0982 45.7003 70.5265 44.9696 70.5265 44.0681C70.5265 43.1666 70.0982 42.4359 69.5699 42.4359C69.0416 42.4359 68.6133 43.1666 68.6133 44.0681C68.6133 44.9696 69.0416 45.7003 69.5699 45.7003Z" fill="#53B175"/>
<path d="M67.3822 45.2655C67.3822 45.2655 67.9374 45.5866 68.0578 46.7773C68.1782 47.968 69.2887 49.0049 69.2887 49.0049L68.3254 49.5735C68.3254 49.5735 67.817 48.2088 67.7033 47.4128C67.5829 46.6167 67.3086 45.426 67.3086 45.426L67.3822 45.2655Z" fill="#53B175"/>
<path d="M68.7727 44.3492C68.7727 44.3492 68.6055 45.2657 68.8128 46.336C69.2075 48.3629 70.0638 48.9917 70.0638 48.9917L71.2746 49.2325C71.2746 49.2325 69.9233 47.9214 69.5688 47.1253C69.2142 46.3293 69.2878 45.0984 69.2878 45.0984L68.7727 44.3492Z" fill="#53B175"/>
<path d="M78.8531 55.8283H78.7461C79.8365 55.8283 80.7195 54.8784 80.7195 53.6074V53.2997C80.7195 51.9886 79.8365 51.0052 78.7461 51.0052H78.8531V55.8283Z" fill="#FFC648"/>
<path d="M79.3213 56.0289H78.6055C77.4214 56.0289 76.4648 55.0723 76.4648 53.8882V52.9383C76.4648 51.7543 77.4214 50.7977 78.6055 50.7977H79.3213V56.0289Z" fill="#53B175"/>
<path d="M62.5312 48.443C62.5312 48.443 63.3205 48.4631 64.6852 48.4631C66.0498 48.4631 67.0599 48.3628 67.769 48.1286C68.4781 47.8945 68.4781 47.754 69.1939 48.2089C69.903 48.6638 70.0234 48.7641 70.0635 48.9983C70.1037 49.2324 69.8628 50.2826 69.7491 50.6773C69.6287 51.072 69.4146 51.0519 69.2942 50.9917C69.1738 50.9315 69.2541 50.3362 69.2742 50.102C69.2942 49.8679 69.2541 49.7274 69.2541 49.7274C69.2541 49.7274 68.5784 49.5468 68.3242 49.5669C68.07 49.5869 67.4747 49.5869 67.0198 49.9214C66.6719 50.1823 66.4846 50.3964 65.9695 50.4967C65.5816 50.5703 65.0598 50.597 64.5848 50.4365C64.1567 50.296 62.1699 50.4164 62.1699 50.4164L62.5312 48.443Z" fill="#FFA171"/>
<path d="M52.7171 43.0579C52.5967 45.1116 52.1619 48.5567 52.784 50.3026C53.1118 51.2258 53.6002 51.5736 54.4163 52.0285C55.6003 52.6908 57.8145 52.2827 59.5872 52.2359C62.2563 52.169 62.0757 50.9783 62.0757 50.9783C62.0757 50.9783 61.6744 50.5167 61.9486 49.3929C62.2162 48.269 62.437 48.2958 62.437 48.2958C62.437 48.2958 62.5373 47.2522 61.0857 47.4663C59.6408 47.6804 58.7243 47.5733 58.7243 47.5733C58.7243 47.5733 59.313 44.1951 58.6708 41.7267C58.0286 39.2583 56.4164 38.6696 55.3127 38.9238C53.9346 39.2315 52.8777 40.3219 52.7171 43.0579Z" fill="#FFC648"/>
<path d="M63.3752 49.2055C63.5357 49.7742 64.0909 49.9949 64.4254 50.1086C64.7599 50.2224 65.3285 50.3963 65.8302 50.2023C66.3319 50.0083 67.4089 49.7474 67.4089 49.7474C67.4089 49.7474 66.5727 50.229 66.3787 50.3695C66.1847 50.51 65.6897 50.6572 65.3285 50.6103C64.9739 50.5635 64.5191 50.4163 64.305 50.3695C64.0909 50.3227 62.4453 50.3963 62.4453 50.3963L62.6125 48.7507L62.9939 48.4429L63.3484 48.4697C63.3551 48.4697 63.2547 48.7774 63.3752 49.2055Z" fill="#F37E4E"/>
<path d="M62.4254 48.2825L63.1813 48.403C63.1813 48.403 62.8401 48.6036 62.8401 49.3596C62.8401 50.363 63.0542 50.5168 63.0542 50.5168L62.0441 50.8045C62.0441 50.8045 61.5156 50.8781 61.5156 49.8077C61.5156 48.7374 61.7163 48.3494 62.4254 48.2825Z" fill="#FFC648"/>
<path d="M62.1305 48.0216C61.9833 48.2423 61.5619 48.2356 61.4548 49.4197C61.3478 50.6037 61.3946 51.0385 61.2073 51.3931C61.02 51.7476 60.913 51.7944 60.806 51.9015C60.6989 52.0085 60.418 52.1757 60.418 52.1757C60.418 52.1757 61.1137 52.1155 61.495 51.8346C61.883 51.5603 61.9231 51.48 62.0034 51.3128C62.0837 51.1456 62.0502 50.8646 62.0502 50.8646C62.0502 50.8646 61.8161 50.4766 61.9566 49.5267C62.097 48.5701 62.4181 48.2825 62.4181 48.2825C62.4181 48.2825 62.4315 48.1888 62.4181 48.0216C62.4047 47.8543 62.2308 47.6871 62.1372 47.6403C62.0569 47.5934 62.2576 47.8343 62.1305 48.0216Z" fill="#FFAA00"/>
<path d="M66.7467 52.3363C67.2972 52.3363 67.7435 51.8901 67.7435 51.3396C67.7435 50.7891 67.2972 50.3428 66.7467 50.3428C66.1963 50.3428 65.75 50.7891 65.75 51.3396C65.75 51.8901 66.1963 52.3363 66.7467 52.3363Z" fill="#53B175"/>
<path d="M72.8321 49.2525C71.521 50.0553 70.9591 51.1925 71.8956 56.805C72.8321 62.4174 74.1232 68.8193 73.481 72.4182C72.8321 76.0172 71.8287 76.5189 69.9557 77.6695C68.0826 78.8201 60.684 78.9405 58.3093 78.9405C55.9345 78.9405 51.9609 79.0408 51.9609 79.0408C51.9609 79.0408 52.1081 79.6897 52.5362 79.9773C52.971 80.265 70.3838 79.9773 71.6749 79.9773C72.9726 79.9773 75.2738 78.1779 77.5014 74.7997C79.729 71.4148 80.8863 67.8226 80.6655 62.9994C80.4448 58.1763 78.3643 54.2228 76.993 52.2762C75.635 50.3296 74.1232 48.4565 72.8321 49.2525Z" fill="#53B175"/>
<path d="M62.738 72.2108C62.738 72.2108 64.4104 66.2438 65.1261 64.5714C65.8419 62.8991 66.3169 61.9491 65.6412 61.7485C64.9656 61.5478 61.3867 62.2636 61.3867 62.2636L64.1026 62.3371C64.1026 62.3438 62.6577 71.2542 62.738 72.2108Z" fill="#FFAA00"/>
<path d="M37.4326 78.8267L51.9555 79.0541C52.2164 79.0608 52.4372 78.9136 52.4773 78.7129L52.5308 78.4253C52.571 78.2179 52.3636 78.0707 52.096 78.0373C51.0391 77.9102 48.8181 77.8232 44.7175 77.7965C40.5366 77.7697 38.2621 77.743 37.3323 77.85C37.1249 77.8767 37.0246 77.9436 36.9978 78.1042L36.9644 78.4052C36.9309 78.626 37.145 78.82 37.4326 78.8267Z" fill="#FFC648"/>
<path d="M74.7188 78.1978L86.606 74.7996V74.7996C86.8 74.7394 86.9204 74.5387 86.8602 74.338C86.8133 74.1841 86.7464 74.0972 86.5792 73.8764C86.4053 73.6423 86.1778 73.7426 86.1778 73.7426L75.8493 76.9937C75.8493 77.0004 75.2338 77.8634 74.7188 78.1978Z" fill="#FFC648"/>
<path d="M44.7766 55.7613C47.1781 55.855 49.7402 55.8282 53.3124 55.2395C57.9348 54.4836 61.0454 53.119 61.0454 53.119L61.0922 53.6073C61.0922 53.6073 58.4432 55.1459 54.8844 55.8884C51.3256 56.631 46.7433 56.6912 45.8803 56.6912C45.0174 56.6912 43.3918 56.6109 43.3918 56.6109L42.957 55.4335C42.9637 55.4402 43.5992 55.7145 44.7766 55.7613Z" fill="white"/>
<path fill-rule="evenodd" clip-rule="evenodd" d="M62.5438 40.0946H62.6709C63.0455 40.0946 64.1425 40.0478 64.4569 39.5126C64.5974 39.2718 64.564 38.9774 64.3566 38.6497C64.1894 38.3821 63.9619 38.2416 63.6943 38.2349C62.8381 38.2148 61.8146 39.5996 61.7745 39.6598L61.6875 39.7735L61.8012 39.8605C61.8023 39.861 61.8049 39.8627 61.8091 39.8653C61.8592 39.8972 62.1303 40.0699 62.5438 40.0946ZM62.5641 39.807C62.3634 39.7936 62.2029 39.7401 62.1025 39.6932C62.4303 39.2718 63.1394 38.5159 63.6679 38.5226H63.6879C63.8552 38.5293 64.0024 38.6162 64.1161 38.8035C64.2699 39.031 64.2967 39.225 64.2164 39.3655C63.989 39.7534 62.9856 39.827 62.5641 39.807Z" fill="#FFAA00"/>
<path fill-rule="evenodd" clip-rule="evenodd" d="M62.1499 41.9944C62.2302 42.0412 62.3238 42.0613 62.4175 42.0613C62.5646 42.0613 62.7319 42.0011 62.9192 41.8807C63.1533 41.7201 63.2737 41.5194 63.2737 41.2786C63.2804 40.5361 62.1164 39.7133 61.9827 39.6196L61.8622 39.5393L61.782 39.6597C61.7815 39.6607 61.78 39.6631 61.7778 39.6668C61.7501 39.712 61.6004 39.9569 61.588 40.322C61.588 40.3222 61.588 40.3226 61.588 40.3233C61.5875 40.3726 61.576 41.6778 62.1499 41.9944ZM61.8693 40.3287C61.876 40.1749 61.9161 40.0411 61.9495 39.9541C62.3241 40.2418 62.9864 40.8305 62.9797 41.2787C62.9797 41.4258 62.9061 41.5462 62.7523 41.6466C62.5583 41.7737 62.4044 41.8071 62.284 41.7402C61.9629 41.5663 61.8559 40.7368 61.8693 40.3287Z" fill="#FFAA00"/>
<path d="M64.3242 40.5227C63.1 40.5227 62.0765 39.9809 62.0297 39.9608C61.9628 39.9207 61.936 39.8404 61.9695 39.7668C62.0096 39.6999 62.0899 39.6732 62.1635 39.7066C62.1702 39.7133 63.1736 40.2351 64.3242 40.2351C65.4146 40.2351 65.7223 39.807 65.729 39.8003C65.7758 39.7334 65.8628 39.72 65.923 39.7601C65.9899 39.8003 66.0099 39.8872 65.9631 39.9541C65.9497 39.9809 65.5952 40.5227 64.3242 40.5227Z" fill="#FFAA00"/>
<path d="M63.964 42.2485C63.9506 42.2485 63.9306 42.2485 63.9172 42.2418C63.8436 42.2151 63.8035 42.1415 63.8302 42.0679C63.8302 42.0545 63.8436 42.0411 63.857 42.0144C63.9239 41.8739 64.1179 41.4591 63.8168 41.1447C63.4288 40.7367 62.4187 40.2483 62.4054 40.2417C62.3318 40.2082 62.305 40.1212 62.3385 40.0544C62.3719 39.9808 62.4589 39.954 62.5258 39.9875C62.5726 40.0075 63.5961 40.5025 64.0242 40.9507C64.3119 41.2518 64.3386 41.6531 64.1112 42.1348C64.1045 42.1482 64.1045 42.1549 64.0978 42.1615C64.0777 42.2084 64.0175 42.2485 63.964 42.2485Z" fill="#FFAA00"/>
<path d="M38.8574 75.4352C38.8574 75.4352 39.6535 72.057 43.0785 70.3311C46.5102 68.6052 48.6709 69.6889 49.4402 70.117C50.35 70.6254 50.8249 72.0302 50.8851 73.027C50.952 74.0304 38.8574 75.4352 38.8574 75.4352Z" fill="#2C7747"/>
<path d="M73.0194 50.1154C72.2301 50.7242 72.0495 52.0554 72.1899 53.8615C72.3304 55.6677 73.4007 61.22 73.7419 63.6349C74.0898 66.0498 74.2235 69.0266 74.2235 70.2708C74.2235 71.5151 74.0831 72.2041 74.0831 72.2041C74.0831 72.2041 74.8457 70.8194 74.6383 68.0566C74.4309 65.2939 74.4978 63.287 74.0162 60.4574C73.5345 57.6277 73.1198 54.9319 73.0462 53.4802C72.9793 52.0286 72.9793 50.9917 73.6014 50.577C74.2235 50.1622 73.8891 49.4398 73.0194 50.1154Z" fill="#2C7747"/>
<path d="M32.3812 70.9332C33.2977 70.3579 33.9466 70.311 34.5285 70.9332C35.1105 71.5553 35.0169 72.2309 34.4817 72.7193C33.9466 73.2076 33.5853 73.1675 33.2776 73.5688C32.9632 73.9702 31.8461 73.9702 31.5383 73.4819C31.2173 72.9935 31.1771 71.6958 32.3812 70.9332Z" fill="#C1E5F2"/>
<path d="M26.1729 70.6254C27.5042 70.0166 28.3604 69.8226 29.0762 70.1772C29.792 70.5317 30.3271 70.9398 30.4609 71.6488C30.5947 72.3646 30.6817 72.9466 30.1933 73.5687C29.705 74.1909 29.2969 74.5989 28.7216 74.7327C28.1397 74.8665 27.5577 74.4651 27.3837 74.2845C27.2031 74.1039 26.8954 74.1975 26.7616 74.4651C26.6278 74.7327 25.999 74.9535 25.5575 74.7327C25.1093 74.5119 25.0692 74.2845 25.0224 74.0638C24.9755 73.843 24.7548 73.93 24.621 73.6156C24.4738 73.3012 24.2062 71.5151 26.1729 70.6254Z" fill="#C1E5F2"/>
<path d="M17.016 70.0902C16.929 71.5351 17.1966 72.1439 17.8187 72.5453C18.4409 72.9466 18.4409 73.1272 18.5345 73.5754C18.6215 74.0236 19.2503 74.6056 20.4076 74.3782C21.5715 74.1574 22.5081 73.0403 22.595 72.5453C22.682 72.0502 22.7756 71.9231 23.177 71.8295C23.5784 71.7425 24.7424 71.2074 24.8293 69.8628C24.9163 68.5249 24.3811 68.1636 23.9798 67.9897C23.5784 67.8091 23.4914 67.9028 23.5784 67.5014C23.6653 67.1 23.1302 66.1635 22.1937 66.0297C21.2571 65.8959 20.2738 66.0297 19.645 66.9261C19.1968 67.5683 19.3306 67.9563 19.063 68.177C18.8021 68.3911 17.103 68.6587 17.016 70.0902Z" fill="#C1E5F2"/>
<path d="M79.3207 56.116V56.116C79.2069 56.116 79.1133 56.0223 79.1133 55.9086V50.945C79.1133 50.8313 79.2069 50.7376 79.3207 50.7376V50.7376C79.4344 50.7376 79.528 50.8313 79.528 50.945V55.9086C79.528 56.0223 79.4344 56.116 79.3207 56.116Z" fill="white"/>
<path d="M63.334 75.6693L69.5485 75.696" stroke="#FFDDA1" stroke-width="0.147031"/>
<path d="M65.6149 72.7125L65.3339 72.659C66.3173 67.7623 67.7421 59.7951 67.3675 59.2733C66.9594 58.8251 65.1399 58.785 61.5075 58.7114C60.377 58.6847 59.0926 58.6579 57.6009 58.6178C53.547 58.4974 51.975 57.7013 51.3663 57.0591C51.0117 56.6778 51.0117 56.3768 51.0117 56.3433L51.2994 56.35C51.2994 56.3701 51.3796 58.1495 57.6075 58.3368C59.0993 58.3836 60.377 58.4104 61.5075 58.4305C65.4543 58.5107 67.0865 58.5509 67.5749 59.0927C67.6953 59.2265 67.9829 59.5476 66.8257 66.2103C66.2704 69.4547 65.6216 72.6791 65.6149 72.7125Z" fill="#FFDDA1"/>
<rect x="22.6836" y="53.1256" width="18.4295" height="2.0336" fill="#FFC263"/>
<rect x="22.6836" y="54.0489" width="18.4295" height="0.749222" fill="#FBA647"/>
<rect x="22.3223" y="52.3431" width="19.1453" height="2.0336" fill="#FFC263"/>
<rect x="22.6836" y="58.7916" width="18.4295" height="2.0336" fill="#FFC263"/>
<rect x="22.6836" y="59.7081" width="18.4295" height="0.749222" fill="#FBA647"/>
<rect x="22.3223" y="58.0023" width="19.1453" height="2.0336" fill="#FFC263"/>
<rect x="22.8242" y="50.3094" width="18.4295" height="2.0336" fill="#FCA647"/>
<rect x="22.8242" y="51.3731" width="18.4295" height="0.615433" fill="#EF851B"/>
<rect x="22.4688" y="49.5201" width="19.1453" height="2.0336" fill="#FBA647"/>
<rect x="22.3945" y="55.9754" width="18.4295" height="2.0336" fill="#FCA647"/>
<rect x="22.3945" y="57.039" width="18.4295" height="0.615433" fill="#EF851B"/>
<rect x="22.041" y="55.186" width="19.1453" height="2.0336" fill="#FBA647"/>
<rect x="22.6836" y="64.4644" width="18.4295" height="2.0336" fill="#FFC263"/>
<rect x="22.6836" y="65.3875" width="18.4295" height="0.749222" fill="#FBA647"/>
<rect x="22.3223" y="63.6749" width="19.1453" height="2.0336" fill="#FFC263"/>
<rect x="22.3945" y="61.6481" width="18.4295" height="2.0336" fill="#FCA647"/>
<rect x="22.3945" y="62.7117" width="18.4295" height="0.615433" fill="#EF851B"/>
<rect x="22.041" y="60.8587" width="19.1453" height="2.0336" fill="#FBA647"/>
<rect x="22.0352" y="47.4864" width="18.4295" height="2.0336" fill="#FFC263"/>
<rect x="22.0625" y="48.3895" width="18.4295" height="0.749222" fill="#FBA647"/>
<rect x="21.6797" y="46.6971" width="19.1453" height="2.0336" fill="#FFC263"/>
<path d="M23.4121 57.2658L23.5325 58.0686H23.673C23.673 58.0686 23.6931 58.6305 23.9339 59.2258C24.1747 59.8279 24.6363 60.1423 24.9306 60.343C25.2316 60.5437 25.8872 60.8848 27.0512 60.8648C28.2085 60.8447 29.232 60.6841 29.8273 60.2426C30.4294 59.8011 32.3091 58.0619 32.3091 58.0619H32.5901L32.9446 57.2591L23.4121 57.2658Z" fill="#EF851B"/>
<path d="M23.6328 57.2264C23.6328 57.2264 23.78 58.7783 24.556 59.5543C25.3654 60.3637 26.4156 60.8721 27.9275 60.5042C29.4393 60.1363 29.941 59.5944 30.7906 58.9656C31.6401 58.3368 32.9312 57.2665 32.9312 57.2665L23.6328 57.2264Z" fill="#FFF498"/>
<path d="M25.3442 59.3468C25.8459 59.7281 26.5483 60.0292 27.2106 59.969C27.8728 59.9088 28.8294 59.6345 29.592 59.0391C30.3613 58.4371 32.0203 57.2798 32.0203 57.2798L24.1602 57.2397C24.1602 57.2263 24.3073 58.5575 25.3442 59.3468Z" fill="#FBE17B"/>
<path d="M26.0669 58.3099C26.7894 58.3701 27.1573 57.8751 27.2576 57.7212C27.3647 57.554 27.4382 57.253 27.4382 57.253H24.9297C24.9297 57.253 25.0568 58.223 26.0669 58.3099Z" fill="#2C7747"/>
<path d="M29.0391 57.2665C29.0391 57.2665 29.2464 58.0424 30.1963 58.0358C31.0325 58.0358 31.3336 57.2464 31.3336 57.2464C31.3336 57.2464 29.0792 57.2665 29.0391 57.2665Z" fill="#2C7747"/>
<path d="M28.3492 59.4473C28.8517 59.4473 29.259 59.04 29.259 58.5375C29.259 58.0351 28.8517 57.6277 28.3492 57.6277C27.8468 57.6277 27.4395 58.0351 27.4395 58.5375C27.4395 59.04 27.8468 59.4473 28.3492 59.4473Z" fill="#2C7747"/>
<path d="M26.3363 57.9957C26.4508 57.9957 26.5437 57.9028 26.5437 57.7883C26.5437 57.6738 26.4508 57.5809 26.3363 57.5809C26.2218 57.5809 26.1289 57.6738 26.1289 57.7883C26.1289 57.9028 26.2218 57.9957 26.3363 57.9957Z" fill="#2C7747"/>
<path d="M28.296 59.1798C28.4401 59.1798 28.5569 59.063 28.5569 58.9189C28.5569 58.7748 28.4401 58.658 28.296 58.658C28.152 58.658 28.0352 58.7748 28.0352 58.9189C28.0352 59.063 28.152 59.1798 28.296 59.1798Z" fill="#2C7747"/>
<path d="M28.1427 58.4707C28.2387 58.4707 28.3166 58.3929 28.3166 58.2968C28.3166 58.2007 28.2387 58.1229 28.1427 58.1229C28.0466 58.1229 27.9688 58.2007 27.9688 58.2968C27.9688 58.3929 28.0466 58.4707 28.1427 58.4707Z" fill="#2C7747"/>
<path d="M29.9396 57.815C30.0356 57.815 30.1135 57.7371 30.1135 57.641C30.1135 57.545 30.0356 57.4671 29.9396 57.4671C29.8435 57.4671 29.7656 57.545 29.7656 57.641C29.7656 57.7371 29.8435 57.815 29.9396 57.815Z" fill="#2C7747"/>
<path d="M30.4747 57.6546C30.5708 57.6546 30.6486 57.5767 30.6486 57.4806C30.6486 57.3846 30.5708 57.3067 30.4747 57.3067C30.3787 57.3067 30.3008 57.3846 30.3008 57.4806C30.3008 57.5767 30.3787 57.6546 30.4747 57.6546Z" fill="#2C7747"/>
<path d="M29.7933 67.8159V67.8159C29.713 67.8159 29.6461 67.749 29.6528 67.6687L30.014 46.4965C30.014 46.4162 30.0809 46.3627 30.1612 46.356C30.2415 46.356 30.3017 46.4229 30.3017 46.5032L29.9405 67.6754C29.9405 67.749 29.8736 67.8159 29.7933 67.8159Z" fill="#53B175"/>
<path d="M34.7503 67.769V67.769C34.67 67.769 34.6031 67.7021 34.6098 67.6218L34.9711 46.6034C34.9711 46.5232 35.038 46.463 35.1182 46.463C35.1985 46.463 35.2587 46.5299 35.2587 46.6101L34.8975 67.6285C34.8908 67.7021 34.8306 67.769 34.7503 67.769Z" fill="#53B175"/>
<path fill-rule="evenodd" clip-rule="evenodd" d="M32.4299 46.5899H32.4634C32.4968 46.5899 32.5303 46.5765 32.5503 46.5565C32.5838 46.5297 32.6039 46.4896 32.6039 46.4427C32.6039 46.3892 32.557 45.1584 32.1088 44.2151C31.8078 43.5863 31.2526 43.1381 30.7241 43.0913C30.4498 43.0645 30.0485 43.1381 29.7207 43.6064C29.4197 44.0345 29.3461 44.456 29.4999 44.8506C29.9548 46.0347 32.3296 46.5698 32.4299 46.5899ZM29.9611 43.7735C30.1484 43.5059 30.3759 43.3721 30.6368 43.3721C30.6568 43.3721 30.6769 43.3721 30.7104 43.3788C31.1385 43.4123 31.6067 43.8003 31.8609 44.3421C32.182 45.0244 32.2824 45.8874 32.3158 46.2687C31.7606 46.1215 30.1083 45.6131 29.7738 44.7502C29.6534 44.4425 29.7136 44.1214 29.9611 43.7735Z" fill="#53B175"/>
<path fill-rule="evenodd" clip-rule="evenodd" d="M32.3484 46.6102C32.3752 46.6436 32.4153 46.6637 32.4554 46.6637C32.4621 46.6637 32.4621 46.6637 32.4688 46.657C32.5156 46.657 33.6863 46.5567 34.6095 46.1286C35.1848 45.861 35.6263 45.3392 35.74 44.804C35.8069 44.4763 35.7467 44.1685 35.5594 43.9545C35.2249 43.5665 34.8168 43.4193 34.382 43.5197C33.5325 43.7203 32.7431 44.8509 32.3217 46.4831C32.3083 46.5299 32.3217 46.5767 32.3484 46.6102ZM34.449 43.8007C34.5159 43.7873 34.5761 43.7806 34.643 43.7806C34.8972 43.7806 35.1314 43.901 35.3521 44.1418C35.4792 44.289 35.5193 44.5097 35.4658 44.7506C35.3655 45.2055 34.9842 45.647 34.4959 45.8744C33.8403 46.1821 33.0309 46.3092 32.6562 46.356C33.0576 44.9579 33.7466 43.9612 34.449 43.8007Z" fill="#53B175"/>
<path d="M31.706 46.6235C30.4618 46.6235 29.2108 46.1619 28.0001 45.7137C26.8829 45.3056 25.826 44.9177 24.7891 44.8575C22.4745 44.7304 22.1267 46.3024 22.1133 46.3693C22.0999 46.4429 22.0263 46.4964 21.9461 46.483C21.8658 46.4696 21.819 46.396 21.8323 46.3158C21.839 46.2957 22.2337 44.4293 24.8025 44.5698C25.8795 44.63 27.0033 45.0448 28.0937 45.4394C29.5253 45.9679 31.0103 46.5098 32.4285 46.2689C32.5088 46.2556 32.5823 46.3091 32.5957 46.3827C32.6091 46.4629 32.5556 46.5365 32.482 46.5499C32.2211 46.6034 31.9669 46.6235 31.706 46.6235Z" fill="#53B175"/>
<path d="M22.1407 51.0853C19.9064 51.0853 18.8027 49.1052 18.796 49.0785C18.7559 49.0116 18.7826 48.9246 18.8562 48.8845C18.9231 48.8444 19.0101 48.8711 19.0502 48.9447C19.0636 48.9648 20.2208 51.0385 22.5488 50.7776C24.1007 50.6037 24.9236 49.9615 25.8802 49.2257C26.4153 48.8109 26.9638 48.3828 27.693 47.9881C30.2885 46.5833 32.3823 46.3626 32.4693 46.3559C32.5496 46.3492 32.6165 46.4027 32.6232 46.483C32.6298 46.5632 32.5763 46.6301 32.4961 46.6368C32.476 46.6368 30.3621 46.8643 27.8268 48.2356C27.1177 48.6169 26.5759 49.0383 26.0474 49.4464C25.0975 50.1822 24.2078 50.878 22.5755 51.0586C22.4284 51.0786 22.2812 51.0853 22.1407 51.0853Z" fill="#53B175"/>
<defs>
<filter id="filter0_d_2268_3092" x="0.100079" y="0.269871" width="111.386" height="111.911" filterUnits="userSpaceOnUse" color-interpolation-filters="sRGB">
<feFlood flood-opacity="0" result="BackgroundImageFix"/>
<feColorMatrix in="SourceAlpha" type="matrix" values="0 0 0 0 0 0 0 0 0 0 0 0 0 0 0 0 0 0 127 0" result="hardAlpha"/>
<feOffset dy="9.72292"/>
<feGaussianBlur stdDeviation="11.8064"/>
<feColorMatrix type="matrix" values="0 0 0 0 0 0 0 0 0 0 0 0 0 0 0 0 0 0 0.15 0"/>
<feBlend mode="normal" in2="BackgroundImageFix" result="effect1_dropShadow_2268_3092"/>
<feBlend mode="normal" in="SourceGraphic" in2="effect1_dropShadow_2268_3092" result="shape"/>
</filter>
</defs>
</svg>
