<svg width="29" height="28" viewBox="0 0 29 28" fill="none" xmlns="http://www.w3.org/2000/svg">
<mask id="mask0_2268_3223" style="mask-type:alpha" maskUnits="userSpaceOnUse" x="4" y="0" width="21" height="20">
<rect x="4.82227" y="0.184875" width="19.7431" height="19.7431" rx="9.87154" fill="#C4C4C4"/>
</mask>
<g mask="url(#mask0_2268_3223)">
<g clip-path="url(#clip0_2268_3223)">
<path d="M21.5308 9.78996L21.6663 9.2062L21.6664 9.20614L21.1574 8.36816C19.1935 5.13527 14.7516 4.53061 11.9947 7.12059L10.7778 8.26415C10.6626 8.37241 10.5191 8.44582 10.3638 8.47581L8.40024 8.85538C8.3096 8.87285 8.22167 8.89724 8.13705 8.92826L7.48656 9.9414L7 11.5306V12.0217C7 12.1864 7.13346 12.3198 7.29811 12.3198H21.6898C21.8609 12.3198 22 12.181 22 12.0097V10.8341L21.7976 10.7178L21.5308 9.78996Z" fill="#FEF0AE"/>
<path d="M9.23225 12.2634V11.2851C9.23225 10.5497 9.69568 9.90592 10.3693 9.6611C10.4539 9.63009 10.5418 9.60569 10.6325 9.58823L12.5961 9.20866C12.7513 9.17867 12.8949 9.10525 13.0101 8.997L14.227 7.85344C15.5809 6.58154 17.3413 6.08056 19.0148 6.28247C16.8369 5.04749 13.9792 5.25644 11.9948 7.12077L10.7778 8.26433C10.6626 8.37258 10.5191 8.446 10.3638 8.47599L8.40024 8.85553C8.3096 8.87299 8.22167 8.89739 8.13705 8.9284L7.48656 9.94154L7 11.5307V12.0219C7 12.1865 7.13346 12.32 7.29811 12.32H9.23225V12.2634Z" fill="#FEE97D"/>
<path d="M10.6008 11.0216C10.7256 11.0216 10.8267 10.9205 10.8267 10.7958V8.21777L10.7773 8.26418C10.665 8.36969 10.5257 8.44178 10.375 8.47316V10.7958C10.375 10.9205 10.4761 11.0216 10.6008 11.0216Z" fill="#FEE97D"/>
<path d="M16.8723 11.9885C16.7476 11.9885 16.6465 11.8874 16.6465 11.7626V7.83231C16.6465 7.70758 16.7476 7.60646 16.8723 7.60646C16.9971 7.60646 17.0982 7.70758 17.0982 7.83231V11.7626C17.0982 11.8874 16.9971 11.9885 16.8723 11.9885Z" fill="#FEE97D"/>
<path d="M8.13705 8.92825V11.5306H7V10.5522C7 9.81688 7.46343 9.17307 8.13705 8.92825Z" fill="#FED402"/>
<path d="M22.0004 9.91625V10.8341H20.5469V9.84488V9.42541C20.5469 9.30436 20.645 9.20619 20.7661 9.20619H21.6668L21.9164 9.61693C21.9712 9.70696 22.0004 9.81055 22.0004 9.91625Z" fill="#EE6161"/>
<path d="M22 11.2596V12.0097C22 12.181 21.8609 12.3198 21.6898 12.3198H7.29842C7.1337 12.3198 7 12.1864 7 12.0217V10.8407H7.57816C7.9898 10.1713 8.72877 9.72383 9.57071 9.72383C10.6334 9.72383 11.5329 10.4372 11.8153 11.4101C11.824 11.4402 11.8514 11.4613 11.8828 11.4613L17.4924 11.4616C17.5238 11.4616 17.5509 11.4406 17.5599 11.4101C17.8423 10.4372 18.7415 9.72383 19.8045 9.72383C20.8118 9.72383 21.6721 10.3643 22 11.2596Z" fill="#FEDF30"/>
<path d="M9.57023 13.4943C10.3619 13.4943 11.0037 12.8525 11.0037 12.0608C11.0037 11.2691 10.3619 10.6273 9.57023 10.6273C8.77852 10.6273 8.13672 11.2691 8.13672 12.0608C8.13672 12.8525 8.77852 13.4943 9.57023 13.4943Z" fill="#736572"/>
<path d="M19.8046 13.4943C20.5963 13.4943 21.2381 12.8525 21.2381 12.0608C21.2381 11.2691 20.5963 10.6273 19.8046 10.6273C19.0129 10.6273 18.3711 11.2691 18.3711 12.0608C18.3711 12.8525 19.0129 13.4943 19.8046 13.4943Z" fill="#736572"/>
<path d="M9.57023 12.0608C9.57023 11.5303 9.85904 11.0672 10.2874 10.8193C10.0765 10.6972 9.83143 10.6273 9.57023 10.6273C8.77854 10.6273 8.13672 11.269 8.13672 12.0608C8.13672 12.8525 8.77851 13.4943 9.57023 13.4943C9.83143 13.4943 10.0766 13.4242 10.2875 13.3022C9.85919 13.0543 9.57023 12.5913 9.57023 12.0608Z" fill="#615260"/>
<path d="M19.8046 12.0608C19.8046 11.5303 20.0934 11.0671 20.5217 10.8193C20.3108 10.6972 20.0658 10.6273 19.8046 10.6273C19.0129 10.6273 18.3711 11.269 18.3711 12.0608C18.3711 12.8525 19.0129 13.4943 19.8046 13.4943C20.0658 13.4943 20.3105 13.4245 20.5213 13.3025C20.093 13.0546 19.8046 12.5913 19.8046 12.0608Z" fill="#615260"/>
<path d="M19.8036 12.5909C19.5112 12.5909 19.2734 12.3531 19.2734 12.0608C19.2734 11.7685 19.5112 11.5307 19.8036 11.5307C20.0959 11.5307 20.3337 11.7685 20.3337 12.0608C20.3337 12.3531 20.0959 12.5909 19.8036 12.5909Z" fill="#B8B2B8"/>
<path d="M19.9013 12.5819C19.8382 12.4204 19.8036 12.2446 19.8036 12.0608C19.8036 11.877 19.8383 11.7012 19.9014 11.5397C19.8695 11.5337 19.8373 11.5307 19.8036 11.5307C19.5112 11.5307 19.2734 11.7685 19.2734 12.0608C19.2734 12.3531 19.5112 12.5909 19.8036 12.5909C19.8372 12.5909 19.8694 12.5879 19.9013 12.5819Z" fill="#9E959E"/>
<path d="M17.4612 6.60506L17.082 6.81645V8.09072L17.4386 8.40429H20.0235C20.0504 8.40429 20.0657 8.37318 20.0492 8.35198C19.3914 7.50681 18.4883 6.89778 17.4612 6.60506Z" fill="#B8DDFF"/>
<path d="M16.3891 6.42589L16.3894 6.41987C14.9979 6.32983 13.6383 6.81525 12.6124 7.77915L12.0488 8.30853C12.0122 8.34289 12.0366 8.40429 12.0867 8.40429H16.1935L16.1936 8.40441L16.1938 8.40429H16.3891L16.6613 8.18326V8.12159V6.79022L16.3891 6.42589Z" fill="#B8DDFF"/>
<path d="M12.6124 7.77924L12.0488 8.30862C12.0122 8.34297 12.0366 8.40437 12.0867 8.40437H13.6397L14.2261 7.85337C14.8932 7.22664 15.6591 6.78748 16.4645 6.52697L16.3891 6.426L16.3894 6.41998C14.9979 6.32991 13.6383 6.81533 12.6124 7.77924Z" fill="#91CCFF"/>
<path d="M16.0499 9.39241H15.7434C15.6187 9.39241 15.5176 9.29129 15.5176 9.16656C15.5176 9.04184 15.6187 8.94072 15.7434 8.94072H16.0499C16.1746 8.94072 16.2757 9.04184 16.2757 9.16656C16.2757 9.29129 16.1746 9.39241 16.0499 9.39241Z" fill="#FEE97D"/>
<path d="M17.4635 6.60507L17.441 8.4043H16.3906V6.4259L16.3909 6.41988C16.5111 6.4274 16.6315 6.43975 16.752 6.45601C16.9944 6.48914 17.2323 6.53912 17.4635 6.60507Z" fill="#FEE97D"/>
<path d="M10.632 9.58808L10.8267 9.55044V8.21777L10.7773 8.26418C10.665 8.36969 10.5257 8.44178 10.375 8.47316V9.65884C10.4577 9.62885 10.5435 9.60512 10.632 9.58808Z" fill="#FEE45A"/>
<path d="M9.57115 12.5909C9.27881 12.5909 9.04102 12.3531 9.04102 12.0608C9.04102 11.7685 9.27881 11.5307 9.57115 11.5307C9.86345 11.5307 10.1012 11.7685 10.1012 12.0608C10.1013 12.3531 9.86345 12.5909 9.57115 12.5909Z" fill="#B8B2B8"/>
<path d="M9.66901 12.5819C9.60587 12.4204 9.57115 12.2446 9.57115 12.0608C9.57115 11.877 9.60587 11.7012 9.66898 11.5397C9.63703 11.5337 9.60484 11.5307 9.57115 11.5307C9.27881 11.5307 9.04102 11.7685 9.04102 12.0608C9.04102 12.3531 9.27881 12.5909 9.57115 12.5909C9.60481 12.5909 9.63703 12.5879 9.66901 12.5819Z" fill="#9E959E"/>
</g>
</g>
<defs>
<clipPath id="clip0_2268_3223">
<rect width="15" height="15" fill="white" transform="translate(7 2.00006)"/>
</clipPath>
</defs>
</svg>
