<svg width="224" height="292" viewBox="0 0 224 292" fill="none" xmlns="http://www.w3.org/2000/svg">
<circle cx="112.265" cy="179.917" r="78.8209" transform="rotate(45 112.265 179.917)" fill="url(#paint0_linear_735_7060)"/>
<path d="M52.2482 194.94L50.0044 195.038C51.1446 195.687 52.2482 194.94 52.2482 194.94Z" fill="white"/>
<path d="M41.076 118.258C23.6808 121.965 26.161 154.639 25.3838 184.73L28.1222 196.001L50.0062 195.037C48.464 194.161 46.8561 190.726 47.8343 179.419C49.5336 159.76 49.0378 151.907 49.0378 151.907L68.8765 107.147C68.8753 107.147 47.699 116.848 41.076 118.258Z" fill="white"/>
<path d="M46.2856 182.544L48.6878 181.98L48.2079 151.539L46.2856 182.544Z" fill="#E6E6E7"/>
<path d="M56.3275 244.077L56.2446 256.786H88.5925L89.0323 243.124L56.3275 244.077Z" fill="#343444"/>
<path d="M92.8765 244.077L93.2845 256.785H125.657L125.581 245.033L92.8765 244.077Z" fill="#343444"/>
<path d="M132.42 194.983L131.64 194.941C131.64 194.94 132.074 195.729 132.42 194.983Z" fill="#F0F1F1"/>
<path d="M138.005 118.258C131.383 116.849 110.206 107.147 110.206 107.147L130.046 151.908C130.046 151.908 130.512 159.76 132.213 179.419C133.173 190.498 132.869 194.018 132.422 194.981L150.961 196.001L153.698 184.73C152.919 154.639 155.399 121.965 138.005 118.258Z" fill="#F0F1F1"/>
<path d="M76.1948 112.875L47.2346 123.672L47.2017 227.491L131.768 227.521L131.807 123.701L104.473 109.144L76.1948 112.875Z" fill="#9AE4A4"/>
<path d="M86.6059 125.511L82.1743 187.258L90.2263 201.238L98.5487 187.875L93.1766 125.513L86.6059 125.511Z" fill="#2DA83E"/>
<path d="M89.7983 111.398C89.7983 111.398 83.2337 111.53 81.6343 114.451C78.098 120.903 86.6056 126.433 86.6056 126.433H93.1714C93.1714 126.433 100.207 121.422 98.2182 116.572C96.6126 112.664 89.7983 111.398 89.7983 111.398Z" fill="#2DA83E"/>
<path d="M67.6729 109.022L77.8273 122.934L90.166 110.881L69.5342 97.5373L67.6729 109.022Z" fill="#72D680"/>
<path d="M89.4277 110.878L101.764 122.942L110.999 109.959L110.07 97.5521L89.4277 110.878Z" fill="#72D680"/>
<path d="M69.529 108.103L48.5525 117.495L44.4413 142.616C44.4413 142.616 42.9088 214.266 42.3936 256.788H90.9185L92.2889 191.564L69.529 108.103Z" fill="white"/>
<path d="M63.304 108.099L57.8345 130.424L66.677 139.027L65.8706 145.784L92.2873 191.563L68.3568 103.333L63.304 108.099Z" fill="#F0F1F1"/>
<path d="M51.6445 225.976L70.4454 225.981V223.525L51.6445 223.516V225.976Z" fill="#D0D2D3"/>
<path d="M130.849 117.519L109.874 108.117L87.0615 191.562L87.0968 256.786H136.942C136.445 214.262 134.94 142.644 134.94 142.644L130.849 117.519Z" fill="#F0F1F1"/>
<path d="M116.101 108.119L111.053 103.348L87.0615 191.563L116.293 145.799L112.706 139.042L121.552 130.446L116.101 108.119Z" fill="white"/>
<path d="M92.4619 200.475C91.4338 200.473 90.6042 201.299 90.6006 202.316C90.5994 203.336 91.4362 204.159 92.4583 204.159C93.4815 204.159 94.3172 203.337 94.316 202.319C94.3172 201.302 93.4852 200.473 92.4619 200.475Z" fill="#D0D2D3"/>
<path d="M92.4536 219.83C91.4304 219.822 90.5959 220.655 90.5947 221.671C90.5947 222.689 91.4279 223.514 92.4536 223.516C93.4756 223.515 94.3113 222.69 94.3125 221.671C94.3149 220.65 93.4805 219.828 92.4536 219.83Z" fill="#D0D2D3"/>
<path d="M92.5759 240.392C91.549 240.391 90.717 241.218 90.7109 242.234C90.7109 243.256 91.5527 244.077 92.5699 244.077C93.5943 244.077 94.4312 243.256 94.4275 242.237C94.4312 241.219 93.5992 240.39 92.5759 240.392Z" fill="#D0D2D3"/>
<path d="M108.33 225.994L127.129 226.004L127.132 223.539L108.33 223.538V225.994Z" fill="#D0D2D3"/>
<path d="M67.8696 193.039L135.68 205.916V200.192L68.8295 186.836L67.8696 193.039Z" fill="#D0D2D3"/>
<path d="M97.0474 173.627L97.6077 180.432L131.471 184.803L131.308 178.776L97.0474 173.627Z" fill="#D0D2D3"/>
<path d="M129.43 181.98L131.835 182.544L129.913 151.539L129.43 181.98Z" fill="#D0D2D3"/>
<path d="M56.7245 167.393C55.845 169.341 59.0585 171.363 59.0585 171.363C59.0585 171.363 51.344 169.287 48.5715 170.115C45.799 170.941 44.2519 174.35 43.8706 176.752C43.4918 179.154 45.9232 183.596 50.1551 185.093C54.3942 186.592 67.3102 188.449 68.5345 186.963C69.7612 185.482 71.8357 173.695 71.8357 173.695L61.5143 166.782C61.5155 166.782 57.6089 165.445 56.7245 167.393Z" fill="#FFBA7F"/>
<path d="M135.78 182.951L71.2381 170.296L67.6738 190.519C67.6738 190.519 127.339 202.065 141.195 204.333C155.048 206.6 153.274 181.483 153.274 181.483L135.78 182.951Z" fill="#F0F1F1"/>
<path d="M43.3994 200.192V205.916L111.214 193.039L110.25 186.836L43.3994 200.192Z" fill="#D0D2D3"/>
<path d="M115.572 170.801C108.034 170.3 103.639 172.777 103.639 172.777C103.639 172.777 105.717 184.563 106.943 186.046C108.168 187.529 113.835 181.487 118.072 179.988C122.307 178.495 126.414 179.089 129.022 178.779C131.457 178.489 122.478 171.258 115.572 170.801Z" fill="#FFBA7F"/>
<path d="M43.3021 181.04L25.8095 181.484C25.8095 181.484 24.0311 206.6 37.8887 204.333C51.7451 202.066 111.409 190.52 111.409 190.52L107.844 168.389L43.3021 181.04Z" fill="white"/>
<path d="M57.8631 183.013C55.5376 183.361 52.6226 183.27 51.6152 182.33C50.9525 181.854 50.2192 179.866 49.8903 177.141C49.1496 171.701 49.3921 163.448 49.3165 156.95L47.3955 156.972C47.4735 163.423 47.2152 171.688 47.9802 177.394C48.4029 180.265 48.9292 182.513 50.3702 183.792C52.4447 185.429 55.6095 185.2 58.1164 184.907C60.1556 184.634 61.7502 184.198 61.7758 184.187L61.2641 182.353C61.2641 182.351 59.7622 182.763 57.8631 183.013Z" fill="#BBBDBF"/>
<path d="M60.0229 181.633C58.7232 181.91 57.8242 182.825 58.0044 183.685C58.1896 184.541 59.387 185.017 60.6905 184.747C61.9866 184.469 62.8904 183.552 62.7077 182.694C62.5238 181.835 61.3227 181.359 60.0229 181.633Z" fill="#57585A"/>
<path d="M76.9196 153.051L75.0583 153.533C76.7113 159.821 79.1269 167.721 79.8615 173.16C80.2586 175.873 80.0844 177.986 79.574 178.62C78.8516 179.785 76.0633 180.639 73.722 180.907C71.8253 181.16 70.271 181.148 70.2661 181.155L70.2637 183.06C70.2893 183.06 71.9386 183.066 73.979 182.798C76.4762 182.426 79.5947 181.822 81.16 179.701C82.2076 178.091 82.1236 175.788 81.7654 172.908C80.9931 167.201 78.5556 159.297 76.9196 153.051Z" fill="#BBBDBF"/>
<path d="M71.2827 180.14C69.9549 180.214 68.9207 180.988 68.9694 181.865C69.0206 182.739 70.1364 183.389 71.4617 183.317C72.7895 183.241 73.8213 182.469 73.7726 181.594C73.7226 180.716 72.6068 180.063 71.2827 180.14Z" fill="#57585A"/>
<path d="M59.703 136.714C51.1005 137.935 45.8502 147.617 47.245 158.075L49.7337 157.743H49.73C49.0917 152.991 49.9895 148.51 51.8996 145.166C53.8206 141.812 56.6796 139.625 60.0344 139.181C63.3879 138.735 66.7256 140.1 69.4665 142.834C72.1939 145.563 74.2538 149.649 74.8933 154.4L77.3832 154.071C75.9568 143.621 68.3263 135.647 59.703 136.714Z" fill="#57585A"/>
<path d="M62.1639 104.184C59.8446 107.175 57.8346 111.012 57.0636 115.068C56.759 116.676 56.6396 118.322 56.6396 119.927C56.647 126.369 58.4242 138.598 58.4413 138.659L60.8483 137.962H60.8447C60.8447 137.955 60.7838 136.614 60.3282 134.455C59.875 132.291 59.0443 122.919 59.0467 119.927C59.0431 118.44 59.1563 116.936 59.4256 115.507C60.098 111.932 61.941 108.374 64.0679 105.64C66.168 102.898 68.6518 101.015 70.0819 100.7L69.4984 98.3861C67.0743 99.0252 64.5138 101.199 62.1639 104.184Z" fill="#57585A"/>
<path d="M117.411 104.184C115.063 101.197 112.501 99.0248 110.079 98.3857L109.496 100.7C110.922 101.017 113.407 102.899 115.506 105.638C117.633 108.372 119.477 111.929 120.151 115.505C120.411 116.908 120.526 118.727 120.526 120.716C120.531 128.717 118.685 139.308 118.687 139.327L121.058 139.738V139.734C121.059 139.703 122.927 129.041 122.933 120.717C122.932 118.637 122.818 116.702 122.515 115.068C121.739 111.01 119.735 107.175 117.411 104.184Z" fill="#57585A"/>
<path d="M117.336 138.66C112.554 138.66 108.678 142.504 108.678 147.247C108.678 151.988 112.553 155.832 117.336 155.832C122.115 155.832 125.992 151.988 125.992 147.247C125.992 142.504 122.115 138.66 117.336 138.66Z" fill="#929597"/>
<path d="M117.336 143.113C115.034 143.113 113.163 144.963 113.163 147.247C113.163 149.528 115.034 151.383 117.336 151.383C119.635 151.383 121.502 149.528 121.502 147.247C121.503 144.963 119.635 143.113 117.336 143.113Z" fill="#D0D2D3"/>
<path d="M46.7725 56.037C42.6272 57.233 43.5847 63.4042 43.5822 65.6997C43.5786 68 47.0478 76.132 49.3721 77.0236C55.2594 79.2888 55.263 70.7775 55.263 70.7775V60.8744C55.2618 60.8744 50.9142 54.8458 46.7725 56.037Z" fill="#FFBA7F"/>
<path d="M131.177 56.1384C127.03 54.9459 122.684 60.9625 122.684 60.9625V70.8704C122.684 70.8704 122.674 79.6464 128.565 77.1238C130.851 76.1416 134.36 68.0978 134.364 65.7999C134.365 63.5032 135.322 57.332 131.177 56.1384Z" fill="#FFBA7F"/>
<path d="M99.4532 12.6356L78.858 12.6308C63.9089 12.6235 51.7907 28.2967 51.7798 47.6366L51.7725 74.2786C51.7639 93.6197 72.0887 107.176 78.8275 109.306C85.9196 111.545 92.8618 111.228 99.4227 109.311C106.504 107.239 126.494 93.6426 126.503 74.3051L126.511 47.6608C126.516 28.3221 114.401 12.6392 99.4532 12.6356Z" fill="#FFBA7F"/>
<path d="M51.7748 62.7841C54.5448 60.572 61.4408 23.3238 61.794 21.3569L49.9865 25.0913C49.9853 25.0913 49.3653 64.7123 51.7748 62.7841Z" fill="#3B2314"/>
<path d="M117.705 23.7049C117.705 23.7049 124.696 61.7818 126.867 63.5952C129.036 65.405 128.502 29.5438 128.502 29.5438L117.705 23.7049Z" fill="#3B2314"/>
<path d="M72.4795 60.1941C70.0273 60.1941 68.0405 62.1621 68.0405 64.5953C68.0405 67.0237 70.0273 68.9918 72.4746 68.9918C74.9218 68.9942 76.9111 67.0237 76.9111 64.5965C76.9135 62.1657 74.9279 60.1965 72.4795 60.1941Z" fill="#221F1F"/>
<path d="M106.261 60.2038C103.816 60.2026 101.825 62.1718 101.825 64.6038C101.825 67.0322 103.81 69.0027 106.258 69.0027C108.708 69.0027 110.694 67.0322 110.694 64.6038C110.694 62.1779 108.707 60.2038 106.261 60.2038Z" fill="#221F1F"/>
<path d="M117.527 52.9236C112.364 49.4961 102.503 50.6886 100.999 50.8396C99.6846 50.9652 96.9937 52.1299 97.1289 53.4347C97.2581 54.7443 101.883 55.7024 103.195 55.5719C108.208 55.0802 112.847 54.6005 119.911 56.2231C121.2 56.5191 118.626 53.6546 117.527 52.9236Z" fill="#3B2314"/>
<path d="M78.4 51.0382C76.8992 50.892 67.0359 49.6936 61.8697 53.1186C60.7685 53.8447 58.197 56.7394 59.487 56.4156C66.6826 54.601 71.1898 55.2812 76.1988 55.7729C77.5144 55.9058 82.1434 54.9502 82.2761 53.6442C82.4028 52.3358 79.718 51.1723 78.4 51.0382Z" fill="#3B2314"/>
<path d="M75.7354 88.106C77.8951 92.5471 81.0733 99.7924 90.7064 99.7779C100.805 99.7621 107.058 84.4743 107.058 84.4743C94.3206 90.4595 87.058 91.1747 75.7354 88.106Z" fill="#D15C58"/>
<path d="M78.2734 88.7426C79.0786 91.3691 82.8013 92.4491 90.3234 91.92C100.285 91.2108 102.504 88.7788 103.736 85.9675C95.7051 89.6185 84.7442 90.1356 78.2734 88.7426Z" fill="white"/>
<path d="M90.5619 95.2849C90.5619 95.2849 88.6786 93.8026 86.4506 93.8026C84.2263 93.8026 80.0298 95.1871 80.0298 95.1871C81.9557 97.8208 85.4822 99.7236 90.4206 99.7466C96.6672 99.7792 100.468 94.7727 100.468 94.7727C100.468 94.7727 96.5722 93.8291 93.8582 93.805C92.1272 93.7881 90.5619 95.2849 90.5619 95.2849Z" fill="#F88976"/>
<path d="M95.0589 78.9424C91.2022 82.1331 85.7315 81.1654 84.126 78.9376C84.126 78.9376 85.7327 84.6702 89.5918 84.4902C93.4497 84.3066 98.9167 75.753 95.0589 78.9424Z" fill="#F69D5E"/>
<path d="M99.6906 2.08149C82.5769 -1.84013 73.0839 4.72248 73.0839 4.72248C73.0839 4.72248 70.5708 2.72422 72.5113 0.156921C67.7667 0.80086 66.4705 5.64792 64.96 9.35812C60.2166 7.85882 56.4062 9.85587 56.4062 9.85587C56.4062 9.85587 60.2166 12.7772 56.1199 16.1297C44.6158 25.5448 50.0792 36.5232 50.0792 36.5232C50.0792 36.5232 54.3159 46.9784 56.3331 44.8678C63.882 36.9508 69.8156 32.7791 71.1117 26.7892C71.1117 26.7892 79.1356 37.0994 89.9479 39.5181C98.8611 41.5164 109.897 43.2283 114.572 42.3017C110.543 38.3064 109.394 30.7458 109.394 30.7458C109.394 30.7458 122.202 54.0195 128.374 36.7358C134.923 18.4119 111.929 4.88921 99.6906 2.08149Z" fill="#3B2314"/>
<path d="M83.375 60.2801C83.375 60.2801 83.375 70.072 78.6461 72.4436C74.8772 74.3343 64.311 74.1422 61.4179 71.4662C58.5235 68.7854 57.2969 59.3522 57.2969 59.3522" stroke="#221F1F" stroke-miterlimit="10"/>
<path d="M56.4268 60.0709C56.4268 60.0709 74.0814 56.4911 84.2432 60.4333" stroke="#221F1F" stroke-miterlimit="10" stroke-linecap="round"/>
<path d="M58.0818 61.2921L48.7837 54.9856" stroke="#221F1F" stroke-miterlimit="10"/>
<path d="M95.4307 60.2793C95.4307 60.2793 95.4307 70.1087 100.177 72.4899C103.959 74.3867 114.567 74.1946 117.472 71.5077C120.38 68.8184 121.609 59.3502 121.609 59.3502" stroke="#221F1F" stroke-miterlimit="10"/>
<path d="M94.5591 60.4344C105.521 56.8136 122.484 60.0695 122.484 60.0695" stroke="#221F1F" stroke-miterlimit="10" stroke-linecap="round"/>
<path d="M120.815 61.2919L130.123 54.9854" stroke="#221F1F" stroke-miterlimit="10"/>
<path d="M84.2427 62.0954C84.2427 62.0954 87.4208 60.4898 89.6123 60.4898C92.2617 60.4898 94.5592 61.8115 94.5592 61.8115" stroke="#221F1F" stroke-miterlimit="10" stroke-linecap="square"/>
<defs>
<linearGradient id="paint0_linear_735_7060" x1="112.993" y1="101.096" x2="112.993" y2="260.993" gradientUnits="userSpaceOnUse">
<stop stop-color="#53B175" stop-opacity="0.2"/>
<stop offset="1" stop-color="#53B175" stop-opacity="0"/>
</linearGradient>
</defs>
</svg>
