<svg width="239" height="75" viewBox="0 0 239 75" fill="none" xmlns="http://www.w3.org/2000/svg">
<rect width="239" height="75" rx="37.5" fill="#53B175" fill-opacity="0.1"/>
<path d="M88.94 52.34H83.38L82.46 55H79.52L84.54 41.02H87.8L92.82 55H89.86L88.94 52.34ZM88.18 50.1L86.16 44.26L84.14 50.1H88.18ZM97.4964 45.52C97.8564 45.0133 98.3497 44.5933 98.9764 44.26C99.6164 43.9133 100.343 43.74 101.156 43.74C102.103 43.74 102.956 43.9733 103.716 44.44C104.49 44.9067 105.096 45.5733 105.536 46.44C105.99 47.2933 106.216 48.2867 106.216 49.42C106.216 50.5533 105.99 51.56 105.536 52.44C105.096 53.3067 104.49 53.98 103.716 54.46C102.956 54.94 102.103 55.18 101.156 55.18C100.343 55.18 99.6231 55.0133 98.9964 54.68C98.3831 54.3467 97.8831 53.9267 97.4964 53.42V60.28H94.6964V43.92H97.4964V45.52ZM103.356 49.42C103.356 48.7533 103.216 48.18 102.936 47.7C102.67 47.2067 102.31 46.8333 101.856 46.58C101.416 46.3267 100.936 46.2 100.416 46.2C99.9097 46.2 99.4297 46.3333 98.9764 46.6C98.5364 46.8533 98.1764 47.2267 97.8964 47.72C97.6297 48.2133 97.4964 48.7933 97.4964 49.46C97.4964 50.1267 97.6297 50.7067 97.8964 51.2C98.1764 51.6933 98.5364 52.0733 98.9764 52.34C99.4297 52.5933 99.9097 52.72 100.416 52.72C100.936 52.72 101.416 52.5867 101.856 52.32C102.31 52.0533 102.67 51.6733 102.936 51.18C103.216 50.6867 103.356 50.1 103.356 49.42ZM111.051 45.52C111.411 45.0133 111.904 44.5933 112.531 44.26C113.171 43.9133 113.898 43.74 114.711 43.74C115.658 43.74 116.511 43.9733 117.271 44.44C118.044 44.9067 118.651 45.5733 119.091 46.44C119.544 47.2933 119.771 48.2867 119.771 49.42C119.771 50.5533 119.544 51.56 119.091 52.44C118.651 53.3067 118.044 53.98 117.271 54.46C116.511 54.94 115.658 55.18 114.711 55.18C113.898 55.18 113.178 55.0133 112.551 54.68C111.938 54.3467 111.438 53.9267 111.051 53.42V60.28H108.251V43.92H111.051V45.52ZM116.911 49.42C116.911 48.7533 116.771 48.18 116.491 47.7C116.224 47.2067 115.864 46.8333 115.411 46.58C114.971 46.3267 114.491 46.2 113.971 46.2C113.464 46.2 112.984 46.3333 112.531 46.6C112.091 46.8533 111.731 47.2267 111.451 47.72C111.184 48.2133 111.051 48.7933 111.051 49.46C111.051 50.1267 111.184 50.7067 111.451 51.2C111.731 51.6933 112.091 52.0733 112.531 52.34C112.984 52.5933 113.464 52.72 113.971 52.72C114.491 52.72 114.971 52.5867 115.411 52.32C115.864 52.0533 116.224 51.6733 116.491 51.18C116.771 50.6867 116.911 50.1 116.911 49.42ZM131.391 55.14C130.418 55.14 129.538 54.9733 128.751 54.64C127.978 54.3067 127.365 53.8267 126.911 53.2C126.458 52.5733 126.225 51.8333 126.211 50.98H129.211C129.251 51.5533 129.451 52.0067 129.811 52.34C130.185 52.6733 130.691 52.84 131.331 52.84C131.985 52.84 132.498 52.6867 132.871 52.38C133.245 52.06 133.431 51.6467 133.431 51.14C133.431 50.7267 133.305 50.3867 133.051 50.12C132.798 49.8533 132.478 49.6467 132.091 49.5C131.718 49.34 131.198 49.1667 130.531 48.98C129.625 48.7133 128.885 48.4533 128.311 48.2C127.751 47.9333 127.265 47.54 126.851 47.02C126.451 46.4867 126.251 45.78 126.251 44.9C126.251 44.0733 126.458 43.3533 126.871 42.74C127.285 42.1267 127.865 41.66 128.611 41.34C129.358 41.0067 130.211 40.84 131.171 40.84C132.611 40.84 133.778 41.1933 134.671 41.9C135.578 42.5933 136.078 43.5667 136.171 44.82H133.091C133.065 44.34 132.858 43.9467 132.471 43.64C132.098 43.32 131.598 43.16 130.971 43.16C130.425 43.16 129.985 43.3 129.651 43.58C129.331 43.86 129.171 44.2667 129.171 44.8C129.171 45.1733 129.291 45.4867 129.531 45.74C129.785 45.98 130.091 46.18 130.451 46.34C130.825 46.4867 131.345 46.66 132.011 46.86C132.918 47.1267 133.658 47.3933 134.231 47.66C134.805 47.9267 135.298 48.3267 135.711 48.86C136.125 49.3933 136.331 50.0933 136.331 50.96C136.331 51.7067 136.138 52.4 135.751 53.04C135.365 53.68 134.798 54.1933 134.051 54.58C133.305 54.9533 132.418 55.14 131.391 55.14ZM142.019 46.22V51.58C142.019 51.9533 142.106 52.2267 142.279 52.4C142.466 52.56 142.772 52.64 143.199 52.64H144.499V55H142.739C140.379 55 139.199 53.8533 139.199 51.56V46.22H137.879V43.92H139.199V41.18H142.019V43.92H144.499V46.22H142.019ZM151.433 55.18C150.366 55.18 149.406 54.9467 148.553 54.48C147.699 54 147.026 53.3267 146.533 52.46C146.053 51.5933 145.813 50.5933 145.813 49.46C145.813 48.3267 146.059 47.3267 146.553 46.46C147.059 45.5933 147.746 44.9267 148.613 44.46C149.479 43.98 150.446 43.74 151.513 43.74C152.579 43.74 153.546 43.98 154.413 44.46C155.279 44.9267 155.959 45.5933 156.453 46.46C156.959 47.3267 157.213 48.3267 157.213 49.46C157.213 50.5933 156.953 51.5933 156.433 52.46C155.926 53.3267 155.233 54 154.353 54.48C153.486 54.9467 152.513 55.18 151.433 55.18ZM151.433 52.74C151.939 52.74 152.413 52.62 152.853 52.38C153.306 52.1267 153.666 51.7533 153.933 51.26C154.199 50.7667 154.333 50.1667 154.333 49.46C154.333 48.4067 154.053 47.6 153.493 47.04C152.946 46.4667 152.273 46.18 151.473 46.18C150.673 46.18 149.999 46.4667 149.453 47.04C148.919 47.6 148.653 48.4067 148.653 49.46C148.653 50.5133 148.913 51.3267 149.433 51.9C149.966 52.46 150.633 52.74 151.433 52.74ZM162.067 45.64C162.427 45.0533 162.893 44.5933 163.467 44.26C164.053 43.9267 164.72 43.76 165.467 43.76V46.7H164.727C163.847 46.7 163.18 46.9067 162.727 47.32C162.287 47.7333 162.067 48.4533 162.067 49.48V55H159.267V43.92H162.067V45.64ZM177.653 49.22C177.653 49.62 177.626 49.98 177.573 50.3H169.473C169.539 51.1 169.819 51.7267 170.313 52.18C170.806 52.6333 171.413 52.86 172.133 52.86C173.173 52.86 173.913 52.4133 174.353 51.52H177.373C177.053 52.5867 176.439 53.4667 175.533 54.16C174.626 54.84 173.513 55.18 172.193 55.18C171.126 55.18 170.166 54.9467 169.313 54.48C168.473 54 167.813 53.3267 167.333 52.46C166.866 51.5933 166.633 50.5933 166.633 49.46C166.633 48.3133 166.866 47.3067 167.333 46.44C167.799 45.5733 168.453 44.9067 169.293 44.44C170.133 43.9733 171.099 43.74 172.193 43.74C173.246 43.74 174.186 43.9667 175.013 44.42C175.853 44.8733 176.499 45.52 176.953 46.36C177.419 47.1867 177.653 48.14 177.653 49.22ZM174.753 48.42C174.739 47.7 174.479 47.1267 173.973 46.7C173.466 46.26 172.846 46.04 172.113 46.04C171.419 46.04 170.833 46.2533 170.353 46.68C169.886 47.0933 169.599 47.6733 169.493 48.42H174.753Z" fill="black"/>
<path d="M83.116 19.242C84.18 19.242 85.0993 19.4427 85.874 19.844C86.658 20.236 87.2553 20.8007 87.666 21.538C88.086 22.2753 88.296 23.1433 88.296 24.142C88.296 25.1407 88.086 26.0087 87.666 26.746C87.2553 27.474 86.658 28.034 85.874 28.426C85.0993 28.8087 84.18 29 83.116 29H80.078V19.242H83.116ZM83.116 27.95C84.376 27.95 85.3373 27.6187 86 26.956C86.6627 26.284 86.994 25.346 86.994 24.142C86.994 22.9287 86.658 21.9813 85.986 21.3C85.3233 20.6187 84.3667 20.278 83.116 20.278H81.352V27.95H83.116ZM93.3224 29.126C92.6038 29.126 91.9504 28.9627 91.3624 28.636C90.7838 28.3093 90.3264 27.8473 89.9904 27.25C89.6638 26.6433 89.5004 25.9433 89.5004 25.15C89.5004 24.366 89.6684 23.6753 90.0044 23.078C90.3498 22.4713 90.8164 22.0093 91.4044 21.692C91.9924 21.3653 92.6504 21.202 93.3784 21.202C94.1064 21.202 94.7644 21.3653 95.3524 21.692C95.9404 22.0093 96.4024 22.4667 96.7384 23.064C97.0838 23.6613 97.2564 24.3567 97.2564 25.15C97.2564 25.9433 97.0791 26.6433 96.7244 27.25C96.3791 27.8473 95.9078 28.3093 95.3104 28.636C94.7131 28.9627 94.0504 29.126 93.3224 29.126ZM93.3224 28.006C93.7798 28.006 94.2091 27.8987 94.6104 27.684C95.0118 27.4693 95.3338 27.1473 95.5764 26.718C95.8284 26.2887 95.9544 25.766 95.9544 25.15C95.9544 24.534 95.8331 24.0113 95.5904 23.582C95.3478 23.1527 95.0304 22.8353 94.6384 22.63C94.2464 22.4153 93.8218 22.308 93.3644 22.308C92.8978 22.308 92.4684 22.4153 92.0764 22.63C91.6938 22.8353 91.3858 23.1527 91.1524 23.582C90.9191 24.0113 90.8024 24.534 90.8024 25.15C90.8024 25.7753 90.9144 26.3027 91.1384 26.732C91.3718 27.1613 91.6798 27.4833 92.0624 27.698C92.4451 27.9033 92.8651 28.006 93.3224 28.006ZM109.152 21.328L106.758 29H105.442L103.594 22.91L101.746 29H100.43L98.0215 21.328H99.3235L101.088 27.768L102.992 21.328H104.294L106.156 27.782L107.892 21.328H109.152ZM114.154 21.188C115.087 21.188 115.843 21.4727 116.422 22.042C117.001 22.602 117.29 23.414 117.29 24.478V29H116.03V24.66C116.03 23.8947 115.839 23.3113 115.456 22.91C115.073 22.4993 114.551 22.294 113.888 22.294C113.216 22.294 112.679 22.504 112.278 22.924C111.886 23.344 111.69 23.9553 111.69 24.758V29H110.416V21.328H111.69V22.42C111.942 22.028 112.283 21.7247 112.712 21.51C113.151 21.2953 113.631 21.188 114.154 21.188ZM120.645 18.64V29H119.371V18.64H120.645ZM126.162 29.126C125.444 29.126 124.79 28.9627 124.202 28.636C123.624 28.3093 123.166 27.8473 122.83 27.25C122.504 26.6433 122.34 25.9433 122.34 25.15C122.34 24.366 122.508 23.6753 122.844 23.078C123.19 22.4713 123.656 22.0093 124.244 21.692C124.832 21.3653 125.49 21.202 126.218 21.202C126.946 21.202 127.604 21.3653 128.192 21.692C128.78 22.0093 129.242 22.4667 129.578 23.064C129.924 23.6613 130.096 24.3567 130.096 25.15C130.096 25.9433 129.919 26.6433 129.564 27.25C129.219 27.8473 128.748 28.3093 128.15 28.636C127.553 28.9627 126.89 29.126 126.162 29.126ZM126.162 28.006C126.62 28.006 127.049 27.8987 127.45 27.684C127.852 27.4693 128.174 27.1473 128.416 26.718C128.668 26.2887 128.794 25.766 128.794 25.15C128.794 24.534 128.673 24.0113 128.43 23.582C128.188 23.1527 127.87 22.8353 127.478 22.63C127.086 22.4153 126.662 22.308 126.204 22.308C125.738 22.308 125.308 22.4153 124.916 22.63C124.534 22.8353 124.226 23.1527 123.992 23.582C123.759 24.0113 123.642 24.534 123.642 25.15C123.642 25.7753 123.754 26.3027 123.978 26.732C124.212 27.1613 124.52 27.4833 124.902 27.698C125.285 27.9033 125.705 28.006 126.162 28.006ZM131.295 25.136C131.295 24.352 131.454 23.666 131.771 23.078C132.089 22.4807 132.523 22.0187 133.073 21.692C133.633 21.3653 134.254 21.202 134.935 21.202C135.607 21.202 136.191 21.3467 136.685 21.636C137.18 21.9253 137.549 22.2893 137.791 22.728V21.328H139.079V29H137.791V27.572C137.539 28.02 137.161 28.3933 136.657 28.692C136.163 28.9813 135.584 29.126 134.921 29.126C134.24 29.126 133.624 28.958 133.073 28.622C132.523 28.286 132.089 27.8147 131.771 27.208C131.454 26.6013 131.295 25.9107 131.295 25.136ZM137.791 25.15C137.791 24.5713 137.675 24.0673 137.441 23.638C137.208 23.2087 136.891 22.882 136.489 22.658C136.097 22.4247 135.663 22.308 135.187 22.308C134.711 22.308 134.277 22.42 133.885 22.644C133.493 22.868 133.181 23.1947 132.947 23.624C132.714 24.0533 132.597 24.5573 132.597 25.136C132.597 25.724 132.714 26.2373 132.947 26.676C133.181 27.1053 133.493 27.4367 133.885 27.67C134.277 27.894 134.711 28.006 135.187 28.006C135.663 28.006 136.097 27.894 136.489 27.67C136.891 27.4367 137.208 27.1053 137.441 26.676C137.675 26.2373 137.791 25.7287 137.791 25.15ZM140.756 25.136C140.756 24.352 140.915 23.666 141.232 23.078C141.55 22.4807 141.984 22.0187 142.534 21.692C143.094 21.3653 143.72 21.202 144.41 21.202C145.008 21.202 145.563 21.342 146.076 21.622C146.59 21.8927 146.982 22.252 147.252 22.7V18.64H148.54V29H147.252V27.558C147 28.0153 146.627 28.3933 146.132 28.692C145.638 28.9813 145.059 29.126 144.396 29.126C143.715 29.126 143.094 28.958 142.534 28.622C141.984 28.286 141.55 27.8147 141.232 27.208C140.915 26.6013 140.756 25.9107 140.756 25.136ZM147.252 25.15C147.252 24.5713 147.136 24.0673 146.902 23.638C146.669 23.2087 146.352 22.882 145.95 22.658C145.558 22.4247 145.124 22.308 144.648 22.308C144.172 22.308 143.738 22.42 143.346 22.644C142.954 22.868 142.642 23.1947 142.408 23.624C142.175 24.0533 142.058 24.5573 142.058 25.136C142.058 25.724 142.175 26.2373 142.408 26.676C142.642 27.1053 142.954 27.4367 143.346 27.67C143.738 27.894 144.172 28.006 144.648 28.006C145.124 28.006 145.558 27.894 145.95 27.67C146.352 27.4367 146.669 27.1053 146.902 26.676C147.136 26.2373 147.252 25.7287 147.252 25.15ZM157.772 29.126C157.053 29.126 156.4 28.9627 155.812 28.636C155.233 28.3093 154.776 27.8473 154.44 27.25C154.113 26.6433 153.95 25.9433 153.95 25.15C153.95 24.366 154.118 23.6753 154.454 23.078C154.799 22.4713 155.266 22.0093 155.854 21.692C156.442 21.3653 157.1 21.202 157.828 21.202C158.556 21.202 159.214 21.3653 159.802 21.692C160.39 22.0093 160.852 22.4667 161.188 23.064C161.533 23.6613 161.706 24.3567 161.706 25.15C161.706 25.9433 161.528 26.6433 161.174 27.25C160.828 27.8473 160.357 28.3093 159.76 28.636C159.162 28.9627 158.5 29.126 157.772 29.126ZM157.772 28.006C158.229 28.006 158.658 27.8987 159.06 27.684C159.461 27.4693 159.783 27.1473 160.026 26.718C160.278 26.2887 160.404 25.766 160.404 25.15C160.404 24.534 160.282 24.0113 160.04 23.582C159.797 23.1527 159.48 22.8353 159.088 22.63C158.696 22.4153 158.271 22.308 157.814 22.308C157.347 22.308 156.918 22.4153 156.526 22.63C156.143 22.8353 155.835 23.1527 155.602 23.582C155.368 24.0113 155.252 24.534 155.252 25.15C155.252 25.7753 155.364 26.3027 155.588 26.732C155.821 27.1613 156.129 27.4833 156.512 27.698C156.894 27.9033 157.314 28.006 157.772 28.006ZM167.119 21.188C168.052 21.188 168.808 21.4727 169.387 22.042C169.965 22.602 170.255 23.414 170.255 24.478V29H168.995V24.66C168.995 23.8947 168.803 23.3113 168.421 22.91C168.038 22.4993 167.515 22.294 166.853 22.294C166.181 22.294 165.644 22.504 165.243 22.924C164.851 23.344 164.655 23.9553 164.655 24.758V29H163.381V21.328H164.655V22.42C164.907 22.028 165.247 21.7247 165.677 21.51C166.115 21.2953 166.596 21.188 167.119 21.188ZM177.622 22.378V26.9C177.622 27.2733 177.702 27.5393 177.86 27.698C178.019 27.8473 178.294 27.922 178.686 27.922H179.624V29H178.476C177.767 29 177.235 28.8367 176.88 28.51C176.526 28.1833 176.348 27.6467 176.348 26.9V22.378H175.354V21.328H176.348V19.396H177.622V21.328H179.624V22.378H177.622ZM184.976 21.188C185.555 21.188 186.077 21.314 186.544 21.566C187.011 21.8087 187.375 22.1773 187.636 22.672C187.907 23.1667 188.042 23.7687 188.042 24.478V29H186.782V24.66C186.782 23.8947 186.591 23.3113 186.208 22.91C185.825 22.4993 185.303 22.294 184.64 22.294C183.968 22.294 183.431 22.504 183.03 22.924C182.638 23.344 182.442 23.9553 182.442 24.758V29H181.168V18.64H182.442V22.42C182.694 22.028 183.039 21.7247 183.478 21.51C183.926 21.2953 184.425 21.188 184.976 21.188ZM197.123 24.87C197.123 25.1127 197.109 25.3693 197.081 25.64H190.949C190.996 26.396 191.252 26.9887 191.719 27.418C192.195 27.838 192.769 28.048 193.441 28.048C193.992 28.048 194.449 27.922 194.813 27.67C195.186 27.4087 195.448 27.0633 195.597 26.634H196.969C196.764 27.3713 196.353 27.9733 195.737 28.44C195.121 28.8973 194.356 29.126 193.441 29.126C192.713 29.126 192.06 28.9627 191.481 28.636C190.912 28.3093 190.464 27.8473 190.137 27.25C189.81 26.6433 189.647 25.9433 189.647 25.15C189.647 24.3567 189.806 23.6613 190.123 23.064C190.44 22.4667 190.884 22.0093 191.453 21.692C192.032 21.3653 192.694 21.202 193.441 21.202C194.169 21.202 194.813 21.3607 195.373 21.678C195.933 21.9953 196.362 22.434 196.661 22.994C196.969 23.5447 197.123 24.17 197.123 24.87ZM195.807 24.604C195.807 24.1187 195.7 23.7033 195.485 23.358C195.27 23.0033 194.976 22.7373 194.603 22.56C194.239 22.3733 193.833 22.28 193.385 22.28C192.741 22.28 192.19 22.4853 191.733 22.896C191.285 23.3067 191.028 23.876 190.963 24.604H195.807Z" fill="#7C8087"/>
<path fill-rule="evenodd" clip-rule="evenodd" d="M63 45.3064C62.2343 47.0055 61.8688 47.7639 60.8828 49.2651C59.5091 51.3614 57.571 53.9725 55.1693 53.9946C53.0359 54.0146 52.4876 52.6034 49.5915 52.6204C46.6953 52.6374 46.0917 54.0197 43.9583 53.9998C41.5566 53.9784 39.7217 51.6206 38.3465 49.5228C34.5027 43.6598 34.1011 36.7799 36.4718 33.1226C38.1564 30.5219 40.8153 29.0022 43.3142 29.0022C45.8589 29.0022 47.4588 30.4 49.5634 30.4C51.6048 30.4 52.848 29 55.7906 29C58.0146 29 60.3713 30.2132 62.0508 32.3096C56.5481 35.3304 57.4428 43.2012 63 45.3064Z" fill="#53B175"/>
<path fill-rule="evenodd" clip-rule="evenodd" d="M54.2918 25.397C55.4013 23.9966 56.2424 22.0209 55.9366 20C54.1243 20.1218 52.0062 21.256 50.769 22.7338C49.6457 24.0748 48.7182 26.0641 49.0791 27.9977C51.0558 28.0586 53.1028 26.8967 54.2918 25.397Z" fill="#53B175"/>
</svg>
