<svg width="200" height="217" viewBox="0 0 200 217" fill="none" xmlns="http://www.w3.org/2000/svg">
<circle cx="100" cy="100" r="100" fill="#E5F9ED"/>
<path d="M39.3326 86.666C27.5698 86.666 18 96.2361 18 107.999V110.811L31.509 123.707L18 135.705V176.36C18 188.123 27.5698 197.693 39.3326 197.693H101.318L112.004 150.16L101.318 86.6664H39.3326V86.666Z" fill="#51C77C"/>
<path d="M124.3 86.666H101.318V197.693H163.304C175.067 197.693 184.636 188.123 184.636 176.36V121.866L124.3 86.666Z" fill="#53B175"/>
<path d="M109.956 168.576H144.224V178.952H109.956V168.576Z" fill="white" fill-opacity="0.4"/>
<path d="M155.424 168.576H166.93V178.952H155.424V168.576Z" fill="white" fill-opacity="0.4"/>
<path d="M48.0676 182.139C39.2508 182.139 32.0781 174.966 32.0781 166.15C32.0781 157.333 39.2508 150.16 48.0676 150.16C56.8844 150.16 64.057 157.333 64.057 166.15C64.057 174.966 56.8844 182.139 48.0676 182.139Z" fill="white" fill-opacity="0.6"/>
<path d="M18 110.811V135.705H101.318L108.173 123.707L101.318 110.811H18Z" fill="#444444"/>
<path d="M101.318 110.811H155.401V135.705H101.318V110.811Z" fill="black"/>
<path d="M118.601 97.5061C118.601 118.569 135.737 135.706 156.8 135.706L164.012 98.2639L156.8 59.3066C135.737 59.3066 118.601 76.4428 118.601 97.5061Z" fill="#FFC648"/>
<path d="M156.8 59.3066V135.706C177.863 135.706 194.999 118.569 194.999 97.5061C194.999 76.4428 177.863 59.3066 156.8 59.3066Z" fill="#E69E00"/>
<path d="M151.614 73.9272V99.9494H156.8L159.395 86.9381L156.8 73.9272H151.614Z" fill="#EDF5FF"/>
<path d="M151.615 113.886C151.741 116.696 153.893 119.072 156.8 119.072L158.681 113.836L156.8 108.701C154.088 108.701 151.489 111.086 151.615 113.886Z" fill="#EDF5FF"/>
<path d="M156.8 73.9272H161.985V99.9494H156.8V73.9272Z" fill="#D6E8FD"/>
<path d="M161.985 113.886C161.86 111.077 159.707 108.701 156.8 108.701V119.072C159.512 119.072 162.111 116.686 161.985 113.886Z" fill="#D6E8FD"/>
</svg>
