<svg width="20" height="20" viewBox="0 0 20 20" fill="none" xmlns="http://www.w3.org/2000/svg">
<path d="M15.4128 7.47694L16.8795 6.02003C18.7517 7.09292 19.9982 8.57557 19.9982 10.2186C19.9982 13.4986 15.0581 16.1501 10.0343 16.1571C9.01194 16.157 7.99241 16.0508 6.99227 15.8403L8.73298 14.1122C9.15744 14.1558 9.59187 14.1785 10.0313 14.1776H10.0333C9.61977 14.1776 9.22121 14.1152 8.84657 13.9994L10.8204 12.0377C11.2887 11.8378 11.6644 11.4647 11.8666 10.9995L13.8395 9.03877C14.0253 9.62977 14.0689 10.2558 13.9669 10.8666C13.8648 11.4774 13.62 12.0559 13.2521 12.5556C12.8842 13.0554 12.4034 13.4625 11.8483 13.7441C11.2933 14.0258 10.6795 14.1743 10.0562 14.1776C14.2859 14.1627 18.0054 12.0159 18.0054 10.2186C18.0054 9.28522 16.9871 8.25291 15.4128 7.47694ZM6.14434 11.0846C6.01376 10.506 6.01569 9.90564 6.14998 9.32788C6.28428 8.75012 6.54751 8.2097 6.92024 7.74654C7.29298 7.28338 7.76569 6.9093 8.30346 6.65192C8.84124 6.39455 9.43036 6.26046 10.0273 6.25955C5.8245 6.2447 2.0631 8.41523 2.0631 10.2186C2.0631 11.1054 2.96385 12.0763 4.38172 12.8355L2.92897 14.2765C1.20023 13.2155 0.0703125 11.7873 0.0703125 10.2186C0.0703125 6.93852 5.03635 4.26322 10.0343 4.28005C10.945 4.28302 11.8547 4.37308 12.7335 4.53936L10.9629 6.29716C10.674 6.27539 10.381 6.26252 10.0861 6.25955C10.3671 6.26351 10.6411 6.29617 10.9061 6.35457L6.14335 11.0846H6.14434ZM19.0935 1.0208C19.2803 1.2064 19.3852 1.4581 19.3852 1.72055C19.3852 1.983 19.2803 2.2347 19.0935 2.42031L2.18466 19.2164C2.09282 19.311 1.98292 19.3865 1.8614 19.4384C1.73987 19.4904 1.60914 19.5178 1.47684 19.519C1.34455 19.5202 1.21332 19.4953 1.09084 19.4456C0.96835 19.3959 0.857049 19.3225 0.76343 19.2296C0.66981 19.1368 0.595746 19.0263 0.54556 18.9047C0.495374 18.7831 0.47007 18.6528 0.471125 18.5214C0.47218 18.39 0.499573 18.2601 0.551706 18.1393C0.603838 18.0185 0.679666 17.9092 0.774764 17.8179L17.6836 1.02179C17.7761 0.929764 17.886 0.856761 18.007 0.806952C18.128 0.757144 18.2576 0.731506 18.3886 0.731506C18.5195 0.731506 18.6492 0.757144 18.7701 0.806952C18.8911 0.856761 19.001 0.929764 19.0935 1.02179V1.0208Z" fill="#7C7C7C"/>
</svg>
