<svg width="24" height="24" viewBox="0 0 24 24" fill="none" xmlns="http://www.w3.org/2000/svg">
<path d="M5.57039 7.88709C5.28389 6.00009 6.61439 4.30509 8.64689 3.68409C9.00757 3.57381 9.39673 3.6052 9.73507 3.77187C10.0734 3.93853 10.3355 4.22792 10.4679 4.58109L11.1204 6.32109C11.2254 6.60101 11.2444 6.90593 11.1749 7.19672C11.1054 7.48751 10.9506 7.7509 10.7304 7.95309L8.78939 9.73059C8.69371 9.81839 8.62242 9.92948 8.58246 10.053C8.5425 10.1766 8.53524 10.3084 8.56139 10.4356L8.57939 10.5136L8.62589 10.7086C8.86728 11.6561 9.23508 12.5667 9.71939 13.4161C10.247 14.3186 10.9017 15.1406 11.6634 15.8566L11.7234 15.9106C11.8203 15.9966 11.9378 16.056 12.0645 16.0831C12.1912 16.1102 12.3228 16.104 12.4464 16.0651L14.9559 15.2746C15.2411 15.185 15.5465 15.1828 15.833 15.268C16.1195 15.3533 16.374 15.5222 16.5639 15.7531L17.7519 17.1946C18.2469 17.7946 18.1869 18.6766 17.6184 19.2061C16.0629 20.6566 13.9239 20.9536 12.4359 19.7581C10.6119 18.2868 9.07432 16.4924 7.89989 14.4646C6.71592 12.4383 5.92508 10.2067 5.56889 7.88709H5.57039ZM10.1349 10.5346L11.7429 9.05859C12.1836 8.65439 12.4935 8.12769 12.6328 7.5461C12.772 6.96451 12.7343 6.35457 12.5244 5.79459L11.8734 4.05459C11.6069 3.34396 11.0795 2.76168 10.3986 2.4264C9.71773 2.09111 8.93464 2.02806 8.20889 2.25009C5.68439 3.02259 3.65789 5.28609 4.08689 8.11359C4.38689 10.0876 5.07839 12.5986 6.60389 15.2206C7.87095 17.4071 9.52957 19.3419 11.4969 20.9281C13.7289 22.7206 16.7079 22.1086 18.6429 20.3056C19.7919 19.2346 19.9089 17.4556 18.9114 16.2436L17.7234 14.8006C17.3433 14.3393 16.8342 14.0021 16.2612 13.8321C15.6882 13.6621 15.0775 13.6672 14.5074 13.8466L12.4239 14.5021C11.8859 13.9474 11.4147 13.3317 11.0199 12.6676C10.6385 11.9961 10.3412 11.2802 10.1349 10.5361V10.5346Z" fill="#2D2D2D"/>
</svg>
