<svg width="162" height="48" viewBox="0 0 162 48" fill="none" xmlns="http://www.w3.org/2000/svg">
<g clip-path="url(#clip0_562_13110)">
<path d="M149.099 0.000156H12.908C12.4115 0.000156 11.921 0.000156 11.4259 0.002556C11.0115 0.004956 10.6003 0.011928 10.1819 0.017796C9.2728 0.0272782 8.36589 0.0981675 7.46899 0.229848C6.57336 0.364395 5.70578 0.618055 4.8956 0.982248C4.08641 1.34952 3.34704 1.82676 2.70429 2.39664C2.05817 2.96492 1.51958 3.62178 1.10923 4.34195C0.697744 5.06069 0.412419 5.83088 0.263109 6.62593C0.112379 7.41998 0.0312704 8.22318 0.0205099 9.02833C0.00794675 9.39625 0.00662003 9.7654 0 10.1334V37.8705C0.00662003 38.2431 0.00794675 38.604 0.0205099 38.9768C0.0312737 39.7819 0.112383 40.585 0.263109 41.379C0.412007 42.1745 0.697348 42.9452 1.10923 43.6642C1.51939 44.382 2.05806 45.0362 2.70429 45.6014C3.3446 46.1738 4.08445 46.6513 4.8956 47.0158C5.70577 47.381 6.57326 47.6361 7.46899 47.7728C8.36604 47.9034 9.27286 47.9743 10.1819 47.9849C10.6003 47.9931 11.0115 47.9978 11.4259 47.9978C11.921 48.0002 12.4115 48.0002 12.908 48.0002H149.099C149.586 48.0002 150.08 48.0002 150.567 47.9978C150.979 47.9978 151.402 47.9931 151.815 47.9849C152.722 47.9749 153.627 47.9039 154.522 47.7728C155.421 47.6352 156.292 47.3801 157.106 47.0158C157.916 46.6511 158.655 46.1736 159.295 45.6014C159.94 45.034 160.48 44.3803 160.895 43.6642C161.304 42.9447 161.586 42.1741 161.733 41.379C161.884 40.5849 161.968 39.7819 161.984 38.9768C161.989 38.604 161.989 38.2431 161.989 37.8705C162 37.4345 162 37.001 162 36.5579V11.4435C162 11.0041 162 10.5681 161.989 10.1334C161.989 9.7654 161.989 9.39625 161.984 9.02828C161.968 8.22306 161.884 7.42004 161.733 6.62588C161.586 5.83129 161.303 5.06116 160.895 4.3419C160.059 2.89839 158.734 1.72339 157.106 0.98214C156.292 0.618837 155.421 0.365245 154.522 0.22974C153.627 0.0974794 152.722 0.0265653 151.815 0.017628C151.402 0.011772 150.979 0.00474 150.567 0.0024C150.08 0 149.586 0 149.099 0V0.000156Z" fill="#A6A6A6"/>
<path d="M11.3162 46.9535C10.903 46.9535 10.4998 46.9489 10.0899 46.9407C9.24064 46.9309 8.3934 46.8655 7.55508 46.7449C6.7734 46.6258 6.01615 46.4041 5.30833 46.0873C4.607 45.7731 3.96733 45.3611 3.41382 44.8671C2.8523 44.379 2.38481 43.8128 2.02988 43.191C1.67103 42.5652 1.42269 41.8944 1.2935 41.2019C1.15399 40.4579 1.07851 39.7056 1.06771 38.9515C1.05911 38.6983 1.04785 37.8555 1.04785 37.8555V10.1291C1.04785 10.1291 1.05984 9.29919 1.06777 9.05538C1.07811 8.30244 1.15316 7.55129 1.29225 6.80843C1.42168 6.11411 1.67022 5.44136 2.02925 4.81349C2.38288 4.19214 2.84778 3.62552 3.40591 3.1356C3.96342 2.64103 4.60514 2.22692 5.30767 1.90838C6.01386 1.59257 6.76967 1.37249 7.54978 1.25551C8.39085 1.13377 9.24104 1.06795 10.0932 1.0586L11.3169 1.04395H150.684L151.922 1.05919C152.767 1.06807 153.609 1.1333 154.443 1.25434C155.231 1.37278 155.994 1.5944 156.709 1.91189C158.116 2.55384 159.261 3.56947 159.984 4.81642C160.337 5.43996 160.582 6.10721 160.709 6.79554C160.85 7.54449 160.929 8.30155 160.945 9.06066C160.949 9.40057 160.949 9.76569 160.949 10.1291C160.96 10.5791 160.96 11.0076 160.96 11.4395V36.5591C160.96 36.9952 160.96 37.4207 160.949 37.8496C160.949 38.24 160.949 38.5975 160.944 38.9655C160.928 39.7111 160.851 40.4546 160.712 41.1902C160.586 41.8876 160.339 42.5636 159.98 43.1946C159.622 43.8096 159.158 44.3709 158.602 44.8578C158.048 45.3544 157.408 45.7688 156.705 46.085C155.992 46.4043 155.23 46.6268 154.443 46.7449C153.604 46.8661 152.757 46.9316 151.908 46.9407C151.511 46.9489 151.095 46.9535 150.691 46.9535L149.221 46.9559L11.3162 46.9535Z" fill="black"/>
<path d="M39.3569 24.3618C39.3698 23.3602 39.6358 22.3781 40.1303 21.507C40.6247 20.6358 41.3314 19.9039 42.1847 19.3793C41.6427 18.6051 40.9275 17.968 40.0961 17.5185C39.2647 17.069 38.34 16.8196 37.3954 16.7901C35.3803 16.5786 33.4267 17.9959 32.3999 17.9959C31.3531 17.9959 29.7721 16.8111 28.0697 16.8461C26.9685 16.8817 25.8952 17.2019 24.9546 17.7756C24.0139 18.3492 23.2379 19.1568 22.7022 20.1195C20.3814 24.1377 22.1125 30.0429 24.3356 33.2908C25.4479 34.8813 26.7478 36.6578 28.4488 36.5948C30.1132 36.5258 30.7349 35.5334 32.744 35.5334C34.7346 35.5334 35.3178 36.5948 37.0532 36.5547C38.8393 36.5258 39.9646 34.9573 41.0379 33.3518C41.837 32.2185 42.452 30.9661 42.86 29.6408C41.8223 29.2019 40.9368 28.4673 40.3139 27.5285C39.6909 26.5898 39.3581 25.4884 39.3569 24.3618Z" fill="white"/>
<path d="M36.079 14.6536C37.0528 13.4845 37.5326 11.9819 37.4164 10.4648C35.9286 10.6211 34.5543 11.3322 33.5673 12.4564C33.0847 13.0056 32.7151 13.6445 32.4796 14.3366C32.2441 15.0287 32.1474 15.7605 32.1948 16.49C32.939 16.4977 33.6752 16.3364 34.348 16.0183C35.0208 15.7002 35.6127 15.2336 36.079 14.6536Z" fill="white"/>
<path d="M60.3968 32.5682H54.7167L53.3526 36.5959H50.9468L56.3269 21.6943H58.8265L64.2065 36.5959H61.7597L60.3968 32.5682ZM55.305 30.7096H59.8074L57.5878 24.1729H57.5257L55.305 30.7096Z" fill="white"/>
<path d="M75.8258 31.1647C75.8258 34.5409 74.0188 36.71 71.2918 36.71C70.601 36.7462 69.914 36.587 69.3095 36.2509C68.7049 35.9147 68.2073 35.4151 67.8735 34.8092H67.8219V40.1905H65.5918V25.7319H67.7504V27.5389H67.7914C68.1406 26.936 68.6467 26.4389 69.2558 26.1007C69.865 25.7625 70.5544 25.5958 71.2508 25.6182C74.0082 25.6182 75.8258 27.7979 75.8258 31.1647ZM73.5336 31.1647C73.5336 28.9651 72.3969 27.519 70.6625 27.519C68.9586 27.519 67.8125 28.9956 67.8125 31.1647C67.8125 33.3538 68.9586 34.8198 70.6625 34.8198C72.3969 34.8198 73.5336 33.3842 73.5336 31.1647Z" fill="white"/>
<path d="M87.7833 31.1647C87.7833 34.5409 85.9763 36.71 83.2494 36.71C82.5586 36.7461 81.8716 36.587 81.267 36.2508C80.6625 35.9147 80.1648 35.4151 79.831 34.8092H79.7794V40.1905H77.5493V25.7319H79.7079V27.5389H79.7489C80.0981 26.936 80.6041 26.4389 81.2133 26.1007C81.8225 25.7625 82.5119 25.5958 83.2083 25.6182C85.9658 25.6182 87.7833 27.7979 87.7833 31.1647ZM85.4911 31.1647C85.4911 28.9651 84.3544 27.519 82.62 27.519C80.9161 27.519 79.77 28.9956 79.77 31.1647C79.77 33.3538 80.9161 34.8198 82.62 34.8198C84.3544 34.8198 85.4912 33.3842 85.4912 31.1647H85.4911Z" fill="white"/>
<path d="M95.6867 32.4444C95.8519 33.9221 97.2875 34.8924 99.2492 34.8924C101.129 34.8924 102.481 33.9221 102.481 32.5897C102.481 31.433 101.666 30.7405 99.7343 30.2658L97.8031 29.8006C95.0667 29.1397 93.7964 27.86 93.7964 25.7834C93.7964 23.2123 96.0371 21.4463 99.2187 21.4463C102.367 21.4463 104.526 23.2123 104.599 25.7834H102.348C102.213 24.2963 100.984 23.3986 99.187 23.3986C97.3905 23.3986 96.1612 24.3068 96.1612 25.6287C96.1612 26.6822 96.9464 27.3022 98.8671 27.7767L100.509 28.1798C103.566 28.9029 104.837 30.131 104.837 32.3107C104.837 35.0986 102.616 36.8447 99.0839 36.8447C95.7792 36.8447 93.548 35.1396 93.4038 32.4443L95.6867 32.4444Z" fill="white"/>
<path d="M109.649 23.1611V25.7322H111.715V27.4982H109.649V33.4877C109.649 34.4182 110.063 34.8518 110.971 34.8518C111.217 34.8475 111.461 34.8303 111.705 34.8002V36.5556C111.297 36.6319 110.882 36.6665 110.466 36.6588C108.267 36.6588 107.409 35.8326 107.409 33.7255V27.4982H105.829V25.7322H107.409V23.1611H109.649Z" fill="white"/>
<path d="M112.912 31.165C112.912 27.7467 114.925 25.5986 118.065 25.5986C121.215 25.5986 123.219 27.7466 123.219 31.165C123.219 34.5928 121.225 36.7314 118.065 36.7314C114.905 36.7314 112.912 34.5928 112.912 31.165ZM120.946 31.165C120.946 28.8201 119.872 27.4361 118.065 27.4361C116.258 27.4361 115.184 28.8307 115.184 31.165C115.184 33.5193 116.258 34.8928 118.065 34.8928C119.872 34.8928 120.946 33.5193 120.946 31.165H120.946Z" fill="white"/>
<path d="M125.057 25.7318H127.184V27.581H127.236C127.38 27.0034 127.718 26.493 128.194 26.1356C128.67 25.7781 129.254 25.5954 129.849 25.6181C130.106 25.6172 130.362 25.6451 130.613 25.7013V27.7872C130.289 27.6881 129.95 27.6426 129.611 27.6525C129.287 27.6393 128.964 27.6965 128.664 27.8199C128.364 27.9434 128.095 28.1303 127.874 28.3677C127.653 28.6052 127.487 28.8876 127.385 29.1956C127.284 29.5036 127.251 29.8299 127.287 30.1521V36.5962H125.057L125.057 25.7318Z" fill="white"/>
<path d="M140.895 33.4057C140.595 35.3779 138.674 36.7314 136.217 36.7314C133.056 36.7314 131.095 34.6139 131.095 31.2166C131.095 27.8088 133.067 25.5986 136.123 25.5986C139.129 25.5986 141.019 27.6635 141.019 30.9576V31.7217H133.346V31.8564C133.31 32.2563 133.361 32.6591 133.493 33.0381C133.625 33.4171 133.836 33.7636 134.113 34.0547C134.389 34.3458 134.724 34.5747 135.096 34.7262C135.468 34.8778 135.867 34.9485 136.269 34.9338C136.796 34.9832 137.324 34.8611 137.776 34.5858C138.229 34.3104 138.58 33.8966 138.778 33.4057L140.895 33.4057ZM133.356 30.1631H138.788C138.808 29.8036 138.754 29.4438 138.628 29.1063C138.502 28.7689 138.308 28.461 138.058 28.2021C137.808 27.9432 137.507 27.7388 137.174 27.6017C136.841 27.4647 136.483 27.3979 136.123 27.4057C135.76 27.4035 135.4 27.4733 135.064 27.611C134.728 27.7487 134.423 27.9515 134.165 28.2079C133.908 28.4643 133.704 28.769 133.565 29.1046C133.426 29.4402 133.356 29.7999 133.356 30.1631V30.1631Z" fill="white"/>
<path d="M55.0258 10.4779C55.4933 10.4443 55.9625 10.5149 56.3994 10.6847C56.8363 10.8544 57.2302 11.1189 57.5525 11.4593C57.8748 11.7996 58.1175 12.2073 58.2632 12.6528C58.4089 13.0983 58.4539 13.5706 58.3949 14.0357C58.3949 16.3232 57.1586 17.6381 55.0258 17.6381H52.4395V10.4779H55.0258ZM53.5516 16.6255H54.9016C55.2356 16.6454 55.57 16.5906 55.8802 16.4651C56.1905 16.3396 56.4688 16.1464 56.695 15.8998C56.9212 15.6531 57.0895 15.3591 57.1878 15.0391C57.286 14.7192 57.3117 14.3814 57.2629 14.0503C57.3081 13.7205 57.2799 13.3847 57.1801 13.0671C57.0804 12.7495 56.9116 12.4579 56.686 12.2132C56.4603 11.9685 56.1833 11.7767 55.8748 11.6516C55.5663 11.5266 55.2339 11.4713 54.9016 11.4897H53.5516V16.6255Z" fill="white"/>
<path d="M59.6512 14.9335C59.6172 14.5784 59.6579 14.2202 59.7705 13.8817C59.8831 13.5432 60.0652 13.232 60.3051 12.968C60.5451 12.704 60.8375 12.4931 61.1637 12.3488C61.49 12.2044 61.8427 12.1299 62.1995 12.1299C62.5562 12.1299 62.909 12.2044 63.2352 12.3488C63.5614 12.4931 63.8539 12.704 64.0938 12.968C64.3337 13.232 64.5158 13.5432 64.6284 13.8817C64.7411 14.2202 64.7817 14.5784 64.7477 14.9335C64.7823 15.289 64.7422 15.6478 64.6299 15.9868C64.5176 16.3258 64.3356 16.6376 64.0956 16.9021C63.8556 17.1666 63.5629 17.378 63.2364 17.5226C62.9098 17.6673 62.5566 17.742 62.1995 17.742C61.8423 17.742 61.4891 17.6673 61.1626 17.5226C60.836 17.378 60.5433 17.1666 60.3033 16.9021C60.0634 16.6376 59.8814 16.3258 59.769 15.9868C59.6567 15.6478 59.6166 15.289 59.6512 14.9335ZM63.6508 14.9335C63.6508 13.7623 63.1246 13.0773 62.2012 13.0773C61.2743 13.0773 60.7528 13.7623 60.7528 14.9335C60.7528 16.1142 61.2743 16.7939 62.2012 16.7939C63.1247 16.7939 63.6508 16.1095 63.6508 14.9335H63.6508Z" fill="white"/>
<path d="M71.5223 17.6379H70.416L69.2992 13.6582H69.2149L68.1027 17.6379H67.007L65.5176 12.2344H66.5992L67.5672 16.3576H67.6469L68.7578 12.2344H69.7809L70.8918 16.3576H70.9762L71.9395 12.2344H73.0059L71.5223 17.6379Z" fill="white"/>
<path d="M74.2588 12.2346H75.2854V13.093H75.365C75.5002 12.7847 75.7282 12.5263 76.0173 12.3537C76.3063 12.1811 76.642 12.103 76.9775 12.1303C77.2405 12.1106 77.5045 12.1502 77.75 12.2463C77.9955 12.3424 78.2162 12.4925 78.3959 12.6856C78.5755 12.8786 78.7094 13.1095 78.7876 13.3613C78.8659 13.6131 78.8864 13.8793 78.8479 14.1401V17.6381H77.7815V14.4079C77.7815 13.5395 77.4041 13.1077 76.6154 13.1077C76.4369 13.0994 76.2587 13.1297 76.0931 13.1967C75.9274 13.2637 75.7782 13.3658 75.6556 13.4958C75.5331 13.6259 75.4401 13.7809 75.3831 13.9503C75.326 14.1196 75.3063 14.2993 75.3252 14.477V17.6381H74.2588L74.2588 12.2346Z" fill="white"/>
<path d="M80.5469 10.125H81.6133V17.6379H80.5469V10.125Z" fill="white"/>
<path d="M83.0955 14.9336C83.0616 14.5785 83.1022 14.2202 83.2149 13.8817C83.3275 13.5432 83.5096 13.232 83.7496 12.968C83.9895 12.704 84.282 12.4931 84.6083 12.3488C84.9345 12.2044 85.2873 12.1299 85.6441 12.1299C86.0008 12.1299 86.3536 12.2044 86.6799 12.3488C87.0061 12.4931 87.2986 12.704 87.5385 12.968C87.7785 13.232 87.9606 13.5432 88.0732 13.8817C88.1859 14.2202 88.2265 14.5785 88.1926 14.9336C88.2272 15.2891 88.187 15.6479 88.0746 15.9869C87.9623 16.326 87.7803 16.6377 87.5402 16.9022C87.3002 17.1667 87.0075 17.3781 86.681 17.5227C86.3544 17.6673 86.0012 17.7421 85.6441 17.7421C85.2869 17.7421 84.9337 17.6673 84.6071 17.5227C84.2806 17.3781 83.9879 17.1667 83.7479 16.9022C83.5078 16.6377 83.3258 16.326 83.2135 15.9869C83.1011 15.6479 83.0609 15.2891 83.0955 14.9336ZM87.0951 14.9336C87.0951 13.7624 86.5689 13.0774 85.6455 13.0774C84.7186 13.0774 84.1971 13.7624 84.1971 14.9336C84.1971 16.1143 84.7186 16.794 85.6455 16.794C86.569 16.794 87.0951 16.1096 87.0951 14.9336H87.0951Z" fill="white"/>
<path d="M89.3154 16.1096C89.3154 15.1369 90.0397 14.5762 91.3252 14.4965L92.7889 14.4121V13.9457C92.7889 13.375 92.4115 13.0527 91.6826 13.0527C91.0873 13.0527 90.6748 13.2713 90.5564 13.6533H89.524C89.633 12.7252 90.5061 12.1299 91.7318 12.1299C93.0865 12.1299 93.8506 12.8043 93.8506 13.9457V17.6377H92.824V16.8783H92.7397C92.5684 17.1507 92.3279 17.3728 92.0428 17.5218C91.7576 17.6709 91.438 17.7416 91.1166 17.7267C90.8898 17.7503 90.6605 17.7261 90.4436 17.6557C90.2267 17.5852 90.0269 17.4701 89.8572 17.3178C89.6875 17.1654 89.5516 16.9792 89.4583 16.7711C89.365 16.563 89.3163 16.3376 89.3154 16.1096ZM92.7889 15.6478V15.1961L91.4693 15.2805C90.7252 15.3303 90.3877 15.5834 90.3877 16.0597C90.3877 16.5461 90.8096 16.8291 91.3897 16.8291C91.5597 16.8463 91.7314 16.8291 91.8946 16.7786C92.0578 16.7281 92.2092 16.6453 92.3397 16.5351C92.4702 16.4249 92.5773 16.2895 92.6544 16.1371C92.7316 15.9847 92.7773 15.8183 92.7889 15.6478Z" fill="white"/>
<path d="M95.252 14.9338C95.252 13.2264 96.1297 12.1447 97.4949 12.1447C97.8326 12.1292 98.1678 12.2101 98.4612 12.3779C98.7546 12.5458 98.9942 12.7937 99.152 13.0927H99.2317V10.125H100.298V17.6379H99.2762V16.7842H99.1918C99.0219 17.0812 98.7739 17.326 98.4748 17.4922C98.1757 17.6584 97.8369 17.7395 97.4949 17.7269C96.1203 17.727 95.252 16.6453 95.252 14.9338ZM96.3536 14.9338C96.3536 16.0799 96.8938 16.7696 97.7973 16.7696C98.6961 16.7696 99.2516 16.07 99.2516 14.9385C99.2516 13.8123 98.6903 13.1028 97.7973 13.1028C96.8996 13.1028 96.3535 13.7971 96.3535 14.9338H96.3536Z" fill="white"/>
<path d="M104.71 14.9335C104.676 14.5784 104.717 14.2202 104.83 13.8817C104.942 13.5432 105.124 13.232 105.364 12.968C105.604 12.704 105.897 12.4931 106.223 12.3488C106.549 12.2044 106.902 12.1299 107.259 12.1299C107.615 12.1299 107.968 12.2044 108.294 12.3488C108.62 12.4931 108.913 12.704 109.153 12.968C109.393 13.232 109.575 13.5432 109.688 13.8817C109.8 14.2202 109.841 14.5784 109.807 14.9335C109.841 15.289 109.801 15.6478 109.689 15.9868C109.577 16.3258 109.395 16.6376 109.155 16.9021C108.915 17.1666 108.622 17.378 108.295 17.5226C107.969 17.6673 107.616 17.742 107.259 17.742C106.901 17.742 106.548 17.6673 106.222 17.5226C105.895 17.378 105.602 17.1666 105.362 16.9021C105.122 16.6376 104.94 16.3258 104.828 15.9868C104.716 15.6478 104.676 15.289 104.71 14.9335ZM108.71 14.9335C108.71 13.7623 108.184 13.0773 107.26 13.0773C106.333 13.0773 105.812 13.7623 105.812 14.9335C105.812 16.1142 106.333 16.7939 107.26 16.7939C108.184 16.7939 108.71 16.1095 108.71 14.9335Z" fill="white"/>
<path d="M111.238 12.2346H112.264V13.093H112.344C112.479 12.7847 112.707 12.5263 112.996 12.3537C113.285 12.1811 113.621 12.103 113.957 12.1303C114.219 12.1106 114.483 12.1502 114.729 12.2463C114.975 12.3424 115.195 12.4925 115.375 12.6856C115.554 12.8786 115.688 13.1095 115.767 13.3613C115.845 13.6131 115.865 13.8793 115.827 14.1401V17.6381H114.76V14.4079C114.76 13.5395 114.383 13.1077 113.594 13.1077C113.416 13.0994 113.238 13.1297 113.072 13.1967C112.906 13.2637 112.757 13.3658 112.635 13.4958C112.512 13.6259 112.419 13.7809 112.362 13.9503C112.305 14.1196 112.285 14.2993 112.304 14.477V17.6381H111.238V12.2346Z" fill="white"/>
<path d="M121.853 10.8887V12.2586H123.023V13.1568H121.853V15.9354C121.853 16.5014 122.086 16.7492 122.617 16.7492C122.753 16.7488 122.888 16.7406 123.023 16.7246V17.6129C122.832 17.6471 122.638 17.6654 122.443 17.6674C121.257 17.6674 120.785 17.2502 120.785 16.2084V13.1568H119.927V12.2585H120.785V10.8887H121.853Z" fill="white"/>
<path d="M124.48 10.125H125.537V13.1027H125.621C125.763 12.7916 125.997 12.5316 126.292 12.3584C126.587 12.1852 126.928 12.1071 127.269 12.1348C127.531 12.1205 127.792 12.1642 128.035 12.2627C128.277 12.3611 128.495 12.5119 128.673 12.7043C128.851 12.8967 128.984 13.126 129.063 13.3757C129.142 13.6255 129.165 13.8896 129.13 14.1492V17.6379H128.062V14.4123C128.062 13.5492 127.66 13.1121 126.907 13.1121C126.724 13.0971 126.539 13.1223 126.367 13.1859C126.194 13.2496 126.038 13.3502 125.908 13.4807C125.779 13.6112 125.679 13.7684 125.617 13.9413C125.554 14.1143 125.53 14.2988 125.546 14.482V17.6379H124.48L124.48 10.125Z" fill="white"/>
<path d="M135.348 16.1788C135.203 16.6726 134.889 17.0998 134.461 17.3856C134.033 17.6714 133.518 17.7976 133.006 17.7421C132.65 17.7515 132.297 17.6833 131.97 17.5423C131.643 17.4012 131.35 17.1907 131.113 16.9253C130.875 16.66 130.698 16.3461 130.594 16.0055C130.49 15.6649 130.462 15.3058 130.51 14.953C130.463 14.5992 130.492 14.2392 130.596 13.8976C130.7 13.556 130.876 13.2407 131.112 12.973C131.348 12.7053 131.639 12.4915 131.965 12.3461C132.291 12.2006 132.645 12.1269 133.002 12.13C134.505 12.13 135.412 13.1572 135.412 14.854V15.2261H131.597V15.2858C131.58 15.4841 131.605 15.6837 131.67 15.8718C131.735 16.0599 131.838 16.2324 131.974 16.3781C132.109 16.5239 132.274 16.6397 132.457 16.7182C132.64 16.7967 132.837 16.8361 133.036 16.8338C133.291 16.8645 133.549 16.8185 133.778 16.7019C134.007 16.5852 134.196 16.4031 134.321 16.1788L135.348 16.1788ZM131.597 14.4374H134.326C134.339 14.256 134.315 14.0739 134.254 13.9026C134.192 13.7314 134.096 13.5748 133.971 13.443C133.846 13.3111 133.694 13.207 133.526 13.1371C133.358 13.0673 133.178 13.0334 132.996 13.0376C132.811 13.0353 132.628 13.0699 132.458 13.1394C132.287 13.209 132.132 13.312 132.001 13.4425C131.871 13.5729 131.768 13.7282 131.698 13.899C131.629 14.0699 131.594 14.253 131.597 14.4374H131.597Z" fill="white"/>
</g>
<defs>
<clipPath id="clip0_562_13110">
<rect width="162" height="48" fill="white"/>
</clipPath>
</defs>
</svg>
