<svg width="162" height="48" viewBox="0 0 162 48" fill="none" xmlns="http://www.w3.org/2000/svg">
<g clip-path="url(#clip0_562_13109)">
<path d="M156 0H6.00046C2.68677 0 0.000488281 2.68628 0.000488281 5.99997V41.9998C0.000488281 45.3135 2.68677 47.9998 6.00046 47.9998H156C159.313 47.9998 162 45.3135 162 41.9998V5.99997C162 2.68628 159.313 0 156 0Z" fill="black"/>
<path d="M156 0.959755C157.336 0.961299 158.617 1.49283 159.562 2.43773C160.507 3.38263 161.038 4.66373 161.04 5.99997V41.9998C161.038 43.336 160.507 44.6171 159.562 45.562C158.617 46.5069 157.336 47.0384 156 47.04H6.00046C4.66421 47.0385 3.38313 46.5069 2.43827 45.5621C1.49342 44.6172 0.96196 43.336 0.960483 41.9998V5.99997C0.961938 4.66371 1.49339 3.38259 2.43825 2.43769C3.38311 1.49279 4.6642 0.961274 6.00046 0.959755H156ZM156 0H6.00046C4.4106 0.0046537 2.88718 0.638286 1.76298 1.76249C0.638774 2.8867 0.00514198 4.41011 0.000488281 5.99997L0.000488281 41.9998C0.00514198 43.5897 0.638774 45.1131 1.76298 46.2373C2.88718 47.3615 4.4106 47.9951 6.00046 47.9998H156C157.59 47.9951 159.113 47.3615 160.237 46.2373C161.361 45.1131 161.995 43.5897 162 41.9998V5.99997C161.995 4.41011 161.361 2.8867 160.237 1.76249C159.113 0.638286 157.59 0.0046537 156 0V0Z" fill="#A6A6A6"/>
<path d="M56.9021 12.2924C56.9239 12.7327 56.8559 13.1729 56.7021 13.5861C56.5484 13.9993 56.3122 14.3769 56.0079 14.6958C55.6668 15.0496 55.2549 15.3273 54.7991 15.5108C54.3434 15.6944 53.854 15.7797 53.363 15.7611C52.8688 15.7655 52.3788 15.6711 51.9216 15.4834C51.4645 15.2958 51.0495 15.0186 50.701 14.6683C50.3525 14.3179 50.0776 13.9014 49.8924 13.4433C49.7072 12.9852 49.6154 12.4946 49.6224 12.0005C49.6154 11.5064 49.7073 11.0159 49.8925 10.5578C50.0777 10.0996 50.3526 9.68312 50.7011 9.33273C51.0496 8.98234 51.4646 8.70513 51.9217 8.51737C52.3788 8.32962 52.8688 8.23511 53.363 8.2394C53.871 8.23786 54.374 8.34058 54.8407 8.5412C55.2743 8.71692 55.6601 8.99257 55.9669 9.34567L55.3341 9.97903C55.0929 9.69517 54.7897 9.47052 54.448 9.3224C54.1062 9.17428 53.735 9.10666 53.363 9.12475C52.9885 9.12282 52.6174 9.19648 52.2721 9.34133C51.9267 9.48618 51.6141 9.69925 51.3531 9.96776C51.092 10.2363 50.8878 10.5547 50.7528 10.904C50.6177 11.2533 50.5545 11.6262 50.567 12.0005C50.558 12.5612 50.7158 13.1118 51.0202 13.5827C51.3247 14.0535 51.7621 14.4234 52.277 14.6453C52.7919 14.8673 53.3611 14.9313 53.9125 14.8293C54.4638 14.7273 54.9725 14.4639 55.3739 14.0724C55.7434 13.6743 55.9575 13.1568 55.9774 12.614H53.363V11.7491H56.8517C56.8847 11.9284 56.9015 12.1102 56.9021 12.2924V12.2924Z" fill="white" stroke="white" stroke-width="0.2" stroke-miterlimit="10"/>
<path d="M62.4334 9.28515H59.1546V11.5679H62.1112V12.4329H59.1546V14.7156H62.4334V15.6004H58.23V8.40039H62.4334V9.28515Z" fill="white" stroke="white" stroke-width="0.2" stroke-miterlimit="10"/>
<path d="M66.3347 15.6004H65.4089V9.28515H63.3979V8.40039H68.3456V9.28515H66.3347V15.6004Z" fill="white" stroke="white" stroke-width="0.2" stroke-miterlimit="10"/>
<path d="M71.9258 15.6004V8.40039H72.8504V15.6004H71.9258Z" fill="white" stroke="white" stroke-width="0.2" stroke-miterlimit="10"/>
<path d="M76.9542 15.6004H76.0284V9.28515H74.0176V8.40039H78.9651V9.28515H76.9542V15.6004Z" fill="white" stroke="white" stroke-width="0.2" stroke-miterlimit="10"/>
<path d="M88.331 14.6699C87.6302 15.3686 86.681 15.7609 85.6914 15.7609C84.7018 15.7609 83.7525 15.3686 83.0517 14.6699C82.705 14.3188 82.4325 13.9015 82.2503 13.4429C82.0681 12.9843 81.98 12.4937 81.9912 12.0004C81.98 11.5071 82.0681 11.0165 82.2503 10.5579C82.4325 10.0993 82.705 9.68204 83.0517 9.33089C83.3981 8.98441 83.8094 8.70965 84.2621 8.52234C84.7149 8.33502 85.2001 8.23882 85.69 8.23926C86.1799 8.23969 86.665 8.33675 87.1173 8.52487C87.5697 8.71299 87.9805 8.98848 88.3263 9.33557C88.6732 9.6858 88.9463 10.1021 89.1293 10.5599C89.3123 11.0177 89.4015 11.5075 89.3915 12.0004C89.4024 12.4937 89.3142 12.9842 89.132 13.4427C88.9498 13.9013 88.6774 14.3186 88.331 14.6699V14.6699ZM83.7349 14.067C84.2539 14.5852 84.9574 14.8762 85.6908 14.8762C86.4242 14.8762 87.1276 14.5852 87.6466 14.067C87.9128 13.7945 88.1209 13.4709 88.2585 13.1157C88.3961 12.7605 88.4602 12.3811 88.447 12.0004C88.4602 11.6197 88.3961 11.2403 88.2585 10.8851C88.1209 10.5299 87.9128 10.2063 87.6466 9.93377C87.1276 9.41562 86.4242 9.1246 85.6908 9.1246C84.9574 9.1246 84.2539 9.41562 83.7349 9.93377C83.4691 10.2065 83.2613 10.5302 83.1239 10.8853C82.9866 11.2405 82.9225 11.6198 82.9357 12.0004C82.9225 12.381 82.9866 12.7603 83.1239 13.1155C83.2613 13.4706 83.4691 13.7943 83.7349 14.067V14.067Z" fill="white" stroke="white" stroke-width="0.2" stroke-miterlimit="10"/>
<path d="M90.6899 15.6004V8.40039H91.8161L95.3153 14.0014H95.3552L95.3153 12.6138V8.40039H96.2411V15.6004H95.2755L91.6145 9.72806H91.5747L91.6145 11.1156V15.6004H90.6899Z" fill="white" stroke="white" stroke-width="0.2" stroke-miterlimit="10"/>
<path d="M81.7631 26.1021C80.7545 26.1059 79.7696 26.4085 78.9328 26.9717C78.0961 27.5348 77.4449 28.3332 77.0616 29.2662C76.6783 30.1991 76.58 31.2247 76.7791 32.2134C76.9782 33.2022 77.4658 34.1098 78.1804 34.8216C78.8949 35.5335 79.8044 36.0177 80.7939 36.213C81.7834 36.4084 82.8086 36.3062 83.7401 35.9193C84.6715 35.5324 85.4675 34.8782 86.0274 34.0393C86.5874 33.2004 86.8862 32.2144 86.8862 31.2058C86.8961 30.5312 86.7702 29.8615 86.516 29.2365C86.2618 28.6116 85.8845 28.0441 85.4065 27.5679C84.9286 27.0918 84.3597 26.7166 83.7338 26.4648C83.1078 26.213 82.4376 26.0896 81.7631 26.1021V26.1021ZM81.7631 34.299C81.1419 34.3433 80.5218 34.1996 79.9835 33.8865C79.4452 33.5734 79.0136 33.1056 78.745 32.5438C78.4763 31.982 78.383 31.3523 78.4772 30.7368C78.5714 30.1212 78.8487 29.5483 79.2731 29.0926C79.6975 28.6368 80.2493 28.3194 80.8566 28.1817C81.4638 28.0439 82.0986 28.0922 82.678 28.3202C83.2575 28.5483 83.7549 28.9455 84.1055 29.4601C84.456 29.9748 84.6435 30.5831 84.6435 31.2058C84.6624 31.5992 84.6023 31.9924 84.4669 32.3623C84.3315 32.7321 84.1235 33.0711 83.8551 33.3594C83.5867 33.6476 83.2633 33.8792 82.904 34.0406C82.5448 34.202 82.1568 34.2899 81.7631 34.299V34.299ZM70.587 26.1021C69.5784 26.1059 68.5936 26.4085 67.7568 26.9716C66.92 27.5347 66.2688 28.3331 65.8855 29.2661C65.5021 30.199 65.4038 31.2246 65.6029 32.2134C65.802 33.2021 66.2896 34.1098 67.0042 34.8216C67.7187 35.5335 68.6282 36.0176 69.6177 36.213C70.6072 36.4084 71.6324 36.3062 72.5639 35.9193C73.4954 35.5324 74.2913 34.8782 74.8513 34.0393C75.4112 33.2004 75.7101 32.2144 75.7101 31.2058C75.72 30.5312 75.5941 29.8615 75.3399 29.2365C75.0857 28.6116 74.7084 28.0441 74.2304 27.568C73.7525 27.0918 73.1836 26.7167 72.5577 26.4648C71.9318 26.213 71.2616 26.0897 70.587 26.1021V26.1021ZM70.587 34.299C69.9659 34.3433 69.3458 34.1996 68.8075 33.8865C68.2692 33.5734 67.8376 33.1056 67.569 32.5438C67.3003 31.982 67.207 31.3523 67.3012 30.7368C67.3954 30.1212 67.6727 29.5483 68.0971 29.0926C68.5215 28.6368 69.0732 28.3194 69.6805 28.1817C70.2878 28.0439 70.9225 28.0922 71.502 28.3202C72.0815 28.5483 72.5789 28.9455 72.9294 29.4601C73.28 29.9748 73.4675 30.5831 73.4675 31.2058C73.4864 31.5992 73.4263 31.9924 73.2909 32.3623C73.1555 32.7321 72.9475 33.0712 72.6791 33.3594C72.4107 33.6476 72.0873 33.8793 71.728 34.0406C71.3687 34.202 70.9808 34.2899 70.587 34.299ZM57.2926 27.6681V29.8333H62.4738C62.399 30.8488 61.9834 31.8094 61.2944 32.5592C60.7752 33.0884 60.1508 33.5029 59.4615 33.7759C58.7722 34.049 58.0333 34.1745 57.2926 34.1444C55.7781 34.1239 54.3327 33.5079 53.269 32.4297C52.2053 31.3515 51.609 29.8979 51.609 28.3833C51.609 26.8687 52.2053 25.4151 53.269 24.3369C54.3327 23.2587 55.7781 22.6428 57.2926 22.6223C58.7472 22.6032 60.1506 23.159 61.1978 24.1688L62.725 22.6416C62.0105 21.9342 61.162 21.3766 60.2291 21.0015C59.2963 20.6263 58.2979 20.4412 57.2926 20.457C56.2419 20.4417 55.1988 20.6354 54.2237 21.0269C53.2486 21.4183 52.3611 21.9998 51.6128 22.7373C50.8644 23.4748 50.2701 24.3538 49.8645 25.3231C49.4589 26.2923 49.25 27.3326 49.25 28.3833C49.25 29.434 49.4589 30.4743 49.8645 31.4435C50.2701 32.4128 50.8644 33.2918 51.6128 34.0293C52.3611 34.7669 53.2486 35.3483 54.2237 35.7397C55.1988 36.1312 56.2419 36.3249 57.2926 36.3096C58.3191 36.3522 59.343 36.176 60.2962 35.7927C61.2495 35.4094 62.1103 34.8278 62.8216 34.0864C64.0845 32.7079 64.7577 30.8899 64.697 29.0213C64.702 28.5676 64.663 28.1144 64.5808 27.6681H57.2926ZM111.662 29.3499C111.356 28.4255 110.772 27.6179 109.99 27.0368C109.208 26.4557 108.267 26.1294 107.293 26.1021C106.637 26.1062 105.989 26.2432 105.388 26.5048C104.787 26.7665 104.245 27.1473 103.795 27.6244C103.345 28.1014 102.996 28.6648 102.77 29.2804C102.544 29.8959 102.445 30.5509 102.479 31.2058C102.465 31.8768 102.585 32.5439 102.834 33.1673C103.083 33.7906 103.455 34.3574 103.928 34.8338C104.4 35.3102 104.964 35.6865 105.586 35.94C106.207 36.1936 106.873 36.3193 107.544 36.3096C108.385 36.3143 109.214 36.11 109.956 35.7153C110.699 35.3205 111.331 34.7475 111.797 34.0478L110.058 32.8878C109.797 33.3207 109.428 33.6784 108.988 33.9258C108.547 34.1732 108.05 34.3018 107.544 34.299C107.025 34.3189 106.511 34.1821 106.069 33.9063C105.628 33.6306 105.28 33.2286 105.07 32.7525L111.894 29.93L111.662 29.3499ZM104.703 31.0513C104.679 30.6798 104.729 30.3073 104.851 29.9555C104.972 29.6037 105.163 29.2797 105.411 29.0024C105.66 28.7252 105.961 28.5003 106.297 28.3409C106.634 28.1815 106.998 28.0908 107.37 28.0741C107.758 28.0486 108.144 28.1377 108.481 28.3302C108.818 28.5227 109.09 28.8102 109.265 29.1567L104.703 31.0513ZM99.1541 36.0003H101.397V20.9984H99.1541V36.0003ZM95.4809 27.2427H95.4036C95.0627 26.8723 94.6466 26.5789 94.1832 26.3822C93.7198 26.1855 93.2197 26.09 92.7164 26.1021C91.4004 26.1581 90.1568 26.7203 89.2454 27.6713C88.334 28.6223 87.8252 29.8887 87.8252 31.2059C87.8252 32.5231 88.334 33.7894 89.2454 34.7404C90.1568 35.6914 91.4004 36.2536 92.7164 36.3096C93.2217 36.3231 93.7238 36.2263 94.1879 36.026C94.652 35.8256 95.0668 35.5266 95.4036 35.1497H95.4809V35.8843C95.4809 37.837 94.437 38.8809 92.755 38.8809C92.1945 38.8674 91.6506 38.6874 91.1927 38.3638C90.7348 38.0402 90.3836 37.5875 90.1839 37.0636L88.2313 37.8756C88.5993 38.7716 89.2265 39.5373 90.0324 40.0746C90.8384 40.6119 91.7864 40.8963 92.755 40.8914C95.3843 40.8914 97.6076 39.3449 97.6076 35.575V26.4114H95.4809V27.2427ZM92.9098 34.299C92.1347 34.2333 91.4125 33.879 90.8862 33.3061C90.3599 32.7333 90.0678 31.9838 90.0678 31.2059C90.0678 30.428 90.3599 29.6784 90.8862 29.1056C91.4125 28.5328 92.1347 28.1784 92.9098 28.1127C93.2954 28.1315 93.6733 28.2278 94.021 28.3958C94.3686 28.5638 94.6788 28.8 94.9332 29.0905C95.1876 29.3809 95.3808 29.7196 95.5015 30.0864C95.6222 30.4531 95.6678 30.8404 95.6356 31.2251C95.6658 31.6075 95.6185 31.992 95.4966 32.3557C95.3747 32.7193 95.1807 33.0547 94.9263 33.3416C94.6718 33.6286 94.3621 33.8613 94.0156 34.0258C93.6691 34.1903 93.293 34.2832 92.9098 34.299V34.299ZM122.167 20.9987H116.801V36.0003H119.04V30.3166H122.167C122.8 30.3513 123.434 30.2566 124.029 30.0381C124.625 29.8197 125.169 29.4821 125.63 29.0461C126.091 28.61 126.458 28.0847 126.708 27.5021C126.959 26.9195 127.088 26.2919 127.088 25.6576C127.088 25.0234 126.959 24.3958 126.708 23.8132C126.458 23.2306 126.091 22.7052 125.63 22.2692C125.169 21.8332 124.625 21.4956 124.029 21.2772C123.434 21.0587 122.8 20.9639 122.167 20.9987V20.9987ZM122.225 28.2289H119.04V23.0865H122.225C122.567 23.0794 122.907 23.1407 123.225 23.2667C123.543 23.3928 123.833 23.581 124.078 23.8205C124.322 24.0599 124.516 24.3458 124.649 24.6612C124.781 24.9767 124.85 25.3155 124.85 25.6577C124.85 25.9999 124.781 26.3387 124.649 26.6541C124.516 26.9696 124.322 27.2555 124.078 27.4949C123.833 27.7344 123.543 27.9226 123.225 28.0487C122.907 28.1747 122.567 28.236 122.225 28.2289V28.2289ZM136.063 26.0745C135.245 26.0268 134.432 26.2187 133.722 26.6267C133.013 27.0347 132.438 27.641 132.068 28.3712L134.055 29.2011C134.253 28.8387 134.551 28.5416 134.914 28.3462C135.278 28.1508 135.69 28.0656 136.101 28.1009C136.669 28.0455 137.236 28.2175 137.677 28.5793C138.119 28.9411 138.399 29.4631 138.456 30.0309V30.1853C137.737 29.8033 136.935 29.6045 136.121 29.6063C133.978 29.6063 131.797 30.7837 131.797 32.9838C131.818 33.4475 131.932 33.9023 132.132 34.3212C132.332 34.7401 132.614 35.1145 132.961 35.4224C133.309 35.7302 133.714 35.9651 134.154 36.1131C134.594 36.2611 135.059 36.3192 135.522 36.2841C136.086 36.3172 136.648 36.1987 137.151 35.9407C137.653 35.6828 138.077 35.2948 138.379 34.8173H138.456V35.9753H140.617V30.224C140.617 27.5606 138.629 26.0745 136.063 26.0745V26.0745ZM135.792 34.2962C135.059 34.2962 134.036 33.9296 134.036 33.0224C134.036 31.8645 135.31 31.4205 136.41 31.4205C137.125 31.4015 137.831 31.5748 138.456 31.9223C138.374 32.573 138.059 33.1719 137.569 33.6083C137.079 34.0447 136.448 34.289 135.792 34.2962V34.2962ZM148.492 26.4026L145.925 32.9066H145.848L143.184 26.4026H140.772L144.767 35.4928L142.489 40.5493H144.825L150.981 26.4026H148.492ZM128.323 36.0003H130.562V20.9987H128.323V36.0003Z" fill="white"/>
<path d="M12.5226 9.0461C12.1291 9.51659 11.9304 10.1197 11.9673 10.732V37.2712C11.9303 37.8834 12.129 38.4866 12.5226 38.957L12.6114 39.0436L27.4781 24.1769V23.8262L12.6114 8.95898L12.5226 9.0461Z" fill="url(#paint0_linear_562_13109)"/>
<path d="M32.4338 29.134L27.4785 24.1764V23.8256L32.435 18.8691L32.5467 18.9329L38.418 22.269C40.0951 23.2218 40.0951 24.7808 38.418 25.7342L32.5467 29.0703L32.4338 29.134Z" fill="url(#paint1_linear_562_13109)"/>
<path d="M32.5466 29.0696L27.4785 24.001L12.5229 38.9564C12.8647 39.2578 13.3011 39.4301 13.7565 39.4436C14.2119 39.457 14.6577 39.3107 15.0167 39.0301L32.5466 29.0696Z" fill="url(#paint2_linear_562_13109)"/>
<path d="M32.5466 18.9324L15.0167 8.97199C14.6577 8.6913 14.2119 8.54501 13.7565 8.55847C13.3011 8.57193 12.8647 8.74428 12.5229 9.04567L27.4785 24.0012L32.5466 18.9324Z" fill="url(#paint3_linear_562_13109)"/>
<path opacity="0.2" d="M32.4349 28.958L15.0167 38.8547C14.6716 39.1174 14.2504 39.2608 13.8166 39.2631C13.3829 39.2654 12.9602 39.1266 12.6123 38.8676L12.5229 38.957L12.6117 39.0435L12.6123 39.0429C12.9602 39.302 13.3829 39.4409 13.8167 39.4386C14.2504 39.4363 14.6716 39.2929 15.0167 39.03L32.5466 29.0696L32.4349 28.958Z" fill="black"/>
<path opacity="0.12" d="M12.5226 38.7816C12.1291 38.3111 11.9304 37.7079 11.9672 37.0957V37.271C11.9304 37.8833 12.1291 38.4864 12.5226 38.9569L12.612 38.8675L12.5226 38.7816Z" fill="black"/>
<path opacity="0.12" d="M38.4176 25.5587L32.4346 28.9585L32.5463 29.0701L38.4176 25.734C38.763 25.5841 39.0619 25.3444 39.2831 25.0398C39.5044 24.7351 39.6399 24.3768 39.6756 24.002C39.6013 24.3414 39.449 24.6588 39.2306 24.929C39.0123 25.1993 38.7339 25.4149 38.4176 25.5587V25.5587Z" fill="black"/>
<path opacity="0.25" d="M15.0164 9.14762L38.4177 22.4436C38.7341 22.5874 39.0125 22.803 39.2309 23.0734C39.4493 23.3438 39.6016 23.6613 39.6756 24.0009C39.6402 23.626 39.5048 23.2674 39.2835 22.9626C39.0622 22.6578 38.7632 22.418 38.4177 22.2682L15.0164 8.9723C13.3392 8.01938 11.9673 8.8109 11.9673 10.7319V10.9072C11.9673 8.98634 13.3392 8.19482 15.0164 9.14762Z" fill="white"/>
</g>
<defs>
<linearGradient id="paint0_linear_562_13109" x1="26.1597" y1="10.4521" x2="6.02096" y2="30.5909" gradientUnits="userSpaceOnUse">
<stop stop-color="#00A0FF"/>
<stop offset="0.00657" stop-color="#00A1FF"/>
<stop offset="0.2601" stop-color="#00BEFF"/>
<stop offset="0.5122" stop-color="#00D2FF"/>
<stop offset="0.7604" stop-color="#00DFFF"/>
<stop offset="1" stop-color="#00E3FF"/>
</linearGradient>
<linearGradient id="paint1_linear_562_13109" x1="40.6016" y1="24.0016" x2="11.5655" y2="24.0016" gradientUnits="userSpaceOnUse">
<stop stop-color="#FFE000"/>
<stop offset="0.4087" stop-color="#FFBD00"/>
<stop offset="0.7754" stop-color="#FFA500"/>
<stop offset="1" stop-color="#FF9C00"/>
</linearGradient>
<linearGradient id="paint2_linear_562_13109" x1="29.7927" y1="26.7551" x2="2.48292" y2="54.0649" gradientUnits="userSpaceOnUse">
<stop stop-color="#FF3A44"/>
<stop offset="1" stop-color="#C31162"/>
</linearGradient>
<linearGradient id="paint3_linear_562_13109" x1="8.75728" y1="0.211526" x2="20.9522" y2="12.4065" gradientUnits="userSpaceOnUse">
<stop stop-color="#32A071"/>
<stop offset="0.0685" stop-color="#2DA771"/>
<stop offset="0.4762" stop-color="#15CF74"/>
<stop offset="0.8009" stop-color="#06E775"/>
<stop offset="1" stop-color="#00F076"/>
</linearGradient>
<clipPath id="clip0_562_13109">
<rect width="161.999" height="48" fill="white" transform="translate(0.000488281)"/>
</clipPath>
</defs>
</svg>
